<svg width="20" height="20" viewBox="0 0 20 20" fill="none" xmlns="http://www.w3.org/2000/svg">
<path d="M10 0C8.02219 0 6.08879 0.586489 4.4443 1.6853C2.79981 2.78412 1.51809 4.3459 0.761209 6.17316C0.00433284 8.00043 -0.193701 10.0111 0.192152 11.9509C0.578004 13.8907 1.53041 15.6725 2.92894 17.0711C4.32746 18.4696 6.10929 19.422 8.0491 19.8079C9.98891 20.1937 11.9996 19.9957 13.8268 19.2388C15.6541 18.4819 17.2159 17.2002 18.3147 15.5557C19.4135 13.9112 20 11.9778 20 10C20 7.34783 18.9464 4.8043 17.0711 2.92893C15.1957 1.05357 12.6522 0 10 0ZM10 18.065C8.4049 18.065 6.84561 17.592 5.51933 16.7058C4.19305 15.8196 3.15934 14.56 2.54892 13.0863C1.9385 11.6127 1.77878 9.99105 2.08997 8.42659C2.40116 6.86214 3.16928 5.42509 4.29719 4.29718C5.4251 3.16927 6.86214 2.40116 8.4266 2.08997C9.99106 1.77878 11.6127 1.93849 13.0863 2.54891C14.56 3.15933 15.8196 4.19304 16.7058 5.51933C17.592 6.84561 18.065 8.40489 18.065 10C18.0629 12.1383 17.2125 14.1885 15.7005 15.7005C14.1885 17.2125 12.1383 18.0629 10 18.065ZM6.774 9.355C7.02914 9.355 7.27855 9.27934 7.49069 9.1376C7.70283 8.99585 7.86817 8.79438 7.96581 8.55866C8.06345 8.32294 8.08899 8.06357 8.03922 7.81333C7.98944 7.5631 7.86658 7.33324 7.68617 7.15283C7.50576 6.97242 7.27591 6.84956 7.02567 6.79979C6.77544 6.75001 6.51606 6.77556 6.28034 6.87319C6.04463 6.97083 5.84316 7.13617 5.70141 7.34831C5.55966 7.56045 5.484 7.80986 5.484 8.065C5.48387 8.23444 5.51715 8.40225 5.58193 8.55882C5.64671 8.71539 5.74173 8.85765 5.86154 8.97746C5.98136 9.09727 6.12362 9.19229 6.28019 9.25707C6.43676 9.32185 6.60456 9.35513 6.774 9.355ZM13.226 9.355C13.4811 9.355 13.7306 9.27934 13.9427 9.1376C14.1548 8.99585 14.3202 8.79438 14.4178 8.55866C14.5154 8.32294 14.541 8.06357 14.4912 7.81333C14.4414 7.5631 14.3186 7.33324 14.1382 7.15283C13.9578 6.97242 13.7279 6.84956 13.4777 6.79979C13.2274 6.75001 12.9681 6.77556 12.7323 6.87319C12.4966 6.97083 12.2952 7.13617 12.1534 7.34831C12.0117 7.56045 11.936 7.80986 11.936 8.065C11.9359 8.23444 11.9692 8.40225 12.0339 8.55882C12.0987 8.71539 12.1937 8.85765 12.3135 8.97746C12.4334 9.09727 12.5756 9.19229 12.7322 9.25707C12.8888 9.32185 13.0566 9.35513 13.226 9.355ZM13.387 12.282C12.9741 12.7799 12.4565 13.1807 11.8711 13.4557C11.2857 13.7308 10.6468 13.8734 10 13.8734C9.35318 13.8734 8.71431 13.7308 8.12889 13.4557C7.54346 13.1807 7.02588 12.7799 6.613 12.282C6.53259 12.1816 6.43297 12.0982 6.31996 12.0367C6.20696 11.9753 6.08283 11.937 5.95484 11.924C5.82685 11.9111 5.69757 11.9238 5.57454 11.9614C5.45152 11.999 5.33722 12.0607 5.23833 12.143C5.13944 12.2252 5.05794 12.3264 4.9986 12.4405C4.93925 12.5547 4.90325 12.6795 4.8927 12.8077C4.88215 12.9359 4.89726 13.0649 4.93714 13.1872C4.97703 13.3095 5.0409 13.4227 5.125 13.52C5.72077 14.2343 6.46623 14.809 7.30865 15.2033C8.15106 15.5977 9.06985 15.8021 10 15.8021C10.9302 15.8021 11.8489 15.5977 12.6914 15.2033C13.5338 14.809 14.2792 14.2343 14.875 13.52C14.9591 13.4227 15.023 13.3095 15.0629 13.1872C15.1028 13.0649 15.1179 12.9359 15.1073 12.8077C15.0968 12.6795 15.0608 12.5547 15.0014 12.4405C14.9421 12.3264 14.8606 12.2252 14.7617 12.143C14.6628 12.0607 14.5485 11.999 14.4255 11.9614C14.3024 11.9238 14.1732 11.9111 14.0452 11.924C13.9172 11.937 13.7931 11.9753 13.68 12.0367C13.567 12.0982 13.4674 12.1816 13.387 12.282Z" fill="#878787"/>
</svg>
