<svg width="20" height="20" viewBox="0 0 20 20" fill="none" xmlns="http://www.w3.org/2000/svg">
<path id="Vector" d="M10 0C8.02219 0 6.08879 0.586489 4.4443 1.6853C2.79981 2.78412 1.51809 4.3459 0.761209 6.17316C0.00433284 8.00043 -0.193701 10.0111 0.192152 11.9509C0.578004 13.8907 1.53041 15.6725 2.92894 17.0711C4.32746 18.4696 6.10929 19.422 8.0491 19.8079C9.98891 20.1937 11.9996 19.9957 13.8268 19.2388C15.6541 18.4819 17.2159 17.2002 18.3147 15.5557C19.4135 13.9112 20 11.9778 20 10C20 7.34783 18.9464 4.8043 17.0711 2.92893C15.1957 1.05357 12.6522 0 10 0ZM10 18.065C8.4049 18.065 6.84561 17.592 5.51933 16.7058C4.19305 15.8196 3.15934 14.56 2.54892 13.0863C1.9385 11.6127 1.77878 9.99105 2.08997 8.42659C2.40116 6.86214 3.16928 5.42509 4.29719 4.29718C5.4251 3.16927 6.86214 2.40116 8.4266 2.08997C9.99106 1.77878 11.6127 1.93849 13.0863 2.54891C14.56 3.15933 15.8196 4.19304 16.7058 5.51933C17.592 6.84561 18.065 8.40489 18.065 10C18.0629 12.1383 17.2125 14.1885 15.7005 15.7005C14.1885 17.2125 12.1383 18.0629 10 18.065ZM6.774 9.355C7.02914 9.355 7.27855 9.27934 7.49069 9.1376C7.70283 8.99585 7.86817 8.79438 7.96581 8.55866C8.06345 8.32294 8.08899 8.06357 8.03922 7.81333C7.98944 7.5631 7.86658 7.33324 7.68617 7.15283C7.50576 6.97242 7.27591 6.84956 7.02567 6.79979C6.77544 6.75001 6.51606 6.77556 6.28034 6.87319C6.04463 6.97083 5.84316 7.13617 5.70141 7.34831C5.55966 7.56045 5.484 7.80986 5.484 8.065C5.48387 8.23444 5.51715 8.40225 5.58193 8.55882C5.64671 8.71539 5.74173 8.85765 5.86154 8.97746C5.98136 9.09727 6.12362 9.19229 6.28019 9.25707C6.43676 9.32185 6.60456 9.35513 6.774 9.355ZM13.226 6.774C12.9709 6.774 12.7215 6.84966 12.5093 6.9914C12.2972 7.13315 12.1318 7.33462 12.0342 7.57034C11.9366 7.80605 11.911 8.06543 11.9608 8.31567C12.0106 8.5659 12.1334 8.79576 12.3138 8.97617C12.4942 9.15658 12.7241 9.27944 12.9743 9.32921C13.2246 9.37899 13.4839 9.35344 13.7197 9.2558C13.9554 9.15817 14.1569 8.99282 14.2986 8.78068C14.4403 8.56855 14.516 8.31914 14.516 8.064C14.5161 7.89456 14.4829 7.72675 14.4181 7.57018C14.3533 7.41361 14.2583 7.27135 14.1385 7.15154C14.0187 7.03172 13.8764 6.93671 13.7198 6.87193C13.5633 6.80714 13.3954 6.77387 13.226 6.774ZM13.549 12.58H6.449C6.19779 12.5881 5.95957 12.6935 5.78472 12.8741C5.60987 13.0547 5.51211 13.2962 5.51211 13.5475C5.51211 13.7988 5.60987 14.0403 5.78472 14.2209C5.95957 14.4014 6.19779 14.5069 6.449 14.515H13.549C13.8002 14.5069 14.0384 14.4014 14.2133 14.2209C14.3881 14.0403 14.4859 13.7988 14.4859 13.5475C14.4859 13.2962 14.3881 13.0547 14.2133 12.8741C14.0384 12.6935 13.8002 12.5881 13.549 12.58Z" fill="white"/>
</svg>
