<svg width="20" height="20" viewBox="0 0 20 20" fill="none" xmlns="http://www.w3.org/2000/svg">
<path d="M10 0C8.02219 0 6.08879 0.586489 4.4443 1.6853C2.79981 2.78412 1.51809 4.3459 0.761209 6.17316C0.00433284 8.00043 -0.193701 10.0111 0.192152 11.9509C0.578004 13.8907 1.53041 15.6725 2.92894 17.0711C4.32746 18.4696 6.10929 19.422 8.0491 19.8079C9.98891 20.1937 11.9996 19.9957 13.8268 19.2388C15.6541 18.4819 17.2159 17.2002 18.3147 15.5557C19.4135 13.9112 20 11.9778 20 10C20 7.34783 18.9464 4.8043 17.0711 2.92893C15.1957 1.05357 12.6522 0 10 0ZM15.7 15.7C14.3805 17.0175 12.6451 17.8367 10.7893 18.0182C8.93354 18.1996 7.07227 17.732 5.5226 16.6951C3.97292 15.6581 2.83072 14.1159 2.29058 12.3312C1.75045 10.5466 1.84579 8.62983 2.56038 6.90757C3.27496 5.18532 4.56458 3.7641 6.20951 2.88604C7.85445 2.00798 9.75294 1.72741 11.5815 2.09213C13.4101 2.45685 15.0557 3.44429 16.2379 4.88622C17.4201 6.32816 18.0658 8.13538 18.065 10C18.0673 11.0593 17.8594 12.1085 17.4535 13.0869C17.0475 14.0653 16.4515 14.9535 15.7 15.7ZM13.224 5.8C12.264 5.8 11.099 6.981 10.966 8.679C10.9606 8.75183 10.9802 8.82433 11.0215 8.88454C11.0629 8.94474 11.1235 8.98905 11.1934 9.01014C11.2633 9.03123 11.3384 9.02785 11.4061 9.00056C11.4738 8.97326 11.5302 8.92368 11.566 8.86L11.949 8.175C12.0629 7.9291 12.241 7.71844 12.4644 7.56516C12.6879 7.41189 12.9486 7.32167 13.219 7.304C13.4894 7.32167 13.7501 7.41189 13.9736 7.56516C14.1971 7.71844 14.3751 7.9291 14.489 8.175L14.872 8.86C14.9084 8.92274 14.9648 8.97136 15.0323 8.99801C15.0997 9.02466 15.1742 9.02776 15.2436 9.00682C15.313 8.98587 15.3733 8.94211 15.4148 8.88262C15.4562 8.82312 15.4764 8.75138 15.472 8.679C15.351 6.988 14.185 5.806 13.226 5.806L13.224 5.8ZM5.124 8.86L5.507 8.175C5.6209 7.9291 5.79895 7.71844 6.02244 7.56516C6.24593 7.41189 6.50659 7.32167 6.777 7.304C7.04742 7.32167 7.30808 7.41189 7.53157 7.56516C7.75505 7.71844 7.93311 7.9291 8.047 8.175L8.43001 8.86C8.46636 8.92274 8.52284 8.97136 8.59028 8.99801C8.65771 9.02466 8.73217 9.02776 8.8016 9.00682C8.87102 8.98587 8.93134 8.94211 8.97279 8.88262C9.01425 8.82312 9.0344 8.75138 9.03 8.679C8.897 6.979 7.73 5.8 6.772 5.8C5.814 5.8 4.647 6.981 4.514 8.679C4.50942 8.75259 4.52991 8.82555 4.57213 8.88599C4.61436 8.94643 4.67582 8.99077 4.7465 9.01178C4.81717 9.03278 4.89288 9.02921 4.96126 9.00164C5.02964 8.97408 5.08666 8.92415 5.123 8.86H5.124ZM14.616 11.283H5.387C5.31046 11.2821 5.2346 11.2975 5.16443 11.3281C5.09427 11.3587 5.0314 11.4039 4.97998 11.4606C4.92856 11.5173 4.88977 11.5843 4.86615 11.6571C4.84254 11.7299 4.83465 11.8069 4.843 11.883C5.00359 13.0615 5.58778 14.1412 6.48641 14.9204C7.38504 15.6996 8.53663 16.125 9.726 16.117H10.274C11.4608 16.1255 12.6103 15.7026 13.5086 14.9268C14.4068 14.1511 14.9926 13.0754 15.157 11.9C15.1654 11.8239 15.1575 11.7469 15.1339 11.6741C15.1102 11.6013 15.0714 11.5343 15.02 11.4776C14.9686 11.4209 14.9057 11.3757 14.8356 11.3451C14.7654 11.3145 14.6896 11.2991 14.613 11.3L14.616 11.283Z" fill="#878787"/>
</svg>
