<svg width="20" height="20" viewBox="0 0 20 20" fill="none" xmlns="http://www.w3.org/2000/svg">
<path d="M10 0C8.02219 0 6.08879 0.586489 4.4443 1.6853C2.79981 2.78412 1.51809 4.3459 0.761209 6.17316C0.00433284 8.00043 -0.193701 10.0111 0.192152 11.9509C0.578004 13.8907 1.53041 15.6725 2.92894 17.0711C4.32746 18.4696 6.10929 19.422 8.0491 19.8079C9.98891 20.1937 11.9996 19.9957 13.8268 19.2388C15.6541 18.4819 17.2159 17.2002 18.3147 15.5557C19.4135 13.9112 20 11.9778 20 10C20 7.34783 18.9464 4.8043 17.0711 2.92893C15.1957 1.05357 12.6522 0 10 0V0ZM10 18.065C8.4049 18.065 6.84561 17.592 5.51933 16.7058C4.19305 15.8196 3.15934 14.56 2.54892 13.0863C1.9385 11.6127 1.77878 9.99105 2.08997 8.42659C2.40116 6.86214 3.16928 5.42509 4.29719 4.29718C5.4251 3.16927 6.86214 2.40116 8.4266 2.08997C9.99106 1.77878 11.6127 1.93849 13.0863 2.54891C14.56 3.15933 15.8196 4.19304 16.7058 5.51933C17.592 6.84561 18.065 8.40489 18.065 10C18.0629 12.1383 17.2125 14.1885 15.7005 15.7005C14.1885 17.2125 12.1383 18.0629 10 18.065V18.065ZM10 12.259C9.33195 12.259 8.67208 12.406 8.0672 12.6896C7.46233 12.9732 6.92728 13.3864 6.5 13.9C6.3353 14.0973 6.25574 14.352 6.2788 14.608C6.30187 14.864 6.42568 15.1003 6.623 15.265C6.82033 15.4297 7.07499 15.5093 7.33098 15.4862C7.58697 15.4631 7.8233 15.3393 7.988 15.142C8.24125 14.859 8.55135 14.6326 8.89805 14.4776C9.24475 14.3226 9.62024 14.2425 10 14.2425C10.3798 14.2425 10.7553 14.3226 11.102 14.4776C11.4487 14.6326 11.7588 14.859 12.012 15.142C12.1767 15.3393 12.413 15.4631 12.669 15.4862C12.925 15.5093 13.1797 15.4297 13.377 15.265C13.5743 15.1003 13.6981 14.864 13.7212 14.608C13.7443 14.352 13.6647 14.0973 13.5 13.9C13.0728 13.3863 12.5378 12.9728 11.9329 12.6891C11.3281 12.4053 10.6681 12.2581 10 12.258V12.259ZM8.065 9.359C8.30034 9.36313 8.52912 9.28138 8.70854 9.12903C8.88796 8.97668 9.00573 8.76418 9.03981 8.53129C9.07388 8.29839 9.02193 8.06106 8.89368 7.8637C8.76543 7.66634 8.56966 7.52246 8.34301 7.459L5.117 6.491C4.87102 6.41727 4.60581 6.44428 4.37974 6.56608C4.15366 6.68789 3.98523 6.89451 3.9115 7.1405C3.83777 7.38649 3.86478 7.65169 3.98659 7.87776C4.10839 8.10384 4.31502 8.27227 4.561 8.346L5.7 8.69C5.56589 8.88781 5.49159 9.12007 5.486 9.359C5.486 9.70126 5.62197 10.0295 5.86398 10.2715C6.106 10.5135 6.43424 10.6495 6.7765 10.6495C7.11877 10.6495 7.44701 10.5135 7.68903 10.2715C7.93104 10.0295 8.06701 9.70126 8.06701 9.359H8.065ZM16.089 7.145C16.0526 7.0231 15.9925 6.90957 15.9121 6.81094C15.8318 6.71231 15.7327 6.6305 15.6207 6.57021C15.5087 6.50992 15.3858 6.47233 15.2592 6.4596C15.1327 6.44686 15.0048 6.45923 14.883 6.496L11.657 7.464C11.4303 7.52746 11.2346 7.67134 11.1063 7.8687C10.9781 8.06606 10.9261 8.3034 10.9602 8.53629C10.9943 8.76918 11.112 8.98168 11.2915 9.13403C11.4709 9.28638 11.6997 9.36813 11.935 9.364C11.935 9.70626 12.071 10.0345 12.313 10.2765C12.555 10.5185 12.8832 10.6545 13.2255 10.6545C13.5678 10.6545 13.896 10.5185 14.138 10.2765C14.38 10.0345 14.516 9.70626 14.516 9.364C14.5104 9.12507 14.4361 8.89281 14.302 8.695L15.439 8.352C15.5605 8.31601 15.6738 8.25639 15.7722 8.17655C15.8706 8.09671 15.9523 7.99823 16.0126 7.88674C16.0729 7.77526 16.1106 7.65297 16.1236 7.52688C16.1365 7.4008 16.1244 7.2734 16.088 7.152L16.089 7.145Z" fill="white"/>
</svg>
