<svg width="73" height="73" viewBox="0 0 73 73" fill="none" xmlns="http://www.w3.org/2000/svg">
<circle cx="36.2985" cy="36.6432" r="35.7711" fill="url(#paint0_linear_1834_5197)"/>
<g clip-path="url(#clip0_1834_5197)">
<path d="M53.6796 27.3931H52.0686C50.9215 27.3931 49.9883 28.3796 49.9883 29.5923V36.7379C49.9883 37.0529 50.2297 37.308 50.5276 37.308C50.8255 37.308 51.0668 37.0529 51.0668 36.7379V32.0848H52.3348V35.9108C52.3348 36.2257 52.5762 36.4809 52.8741 36.4809C53.172 36.4809 53.4134 36.2257 53.4134 35.9108V32.0848H54.6813V47.0894H51.0668V39.1469C51.0668 38.832 50.8255 38.5768 50.5276 38.5768C50.2297 38.5768 49.9883 38.832 49.9883 39.1469V47.6596C49.9883 47.7611 50.0166 47.8729 50.0729 47.9661L51.9462 51.0704C52.1493 51.4072 52.4962 51.6083 52.8739 51.6083H52.8741C53.2519 51.6083 53.5988 51.4072 53.802 51.0705L55.6752 47.9661C55.7273 47.8796 55.7599 47.769 55.7599 47.6596V29.5922C55.7598 28.3796 54.8266 27.3931 53.6796 27.3931ZM51.0668 30.9445V29.5922C51.0668 29.0083 51.5162 28.5332 52.0686 28.5332H53.6796C54.2319 28.5332 54.6813 29.0083 54.6813 29.5922V30.9445H51.0668ZM52.8926 50.4573C52.8895 50.4625 52.8861 50.4681 52.874 50.4681C52.8619 50.4681 52.8588 50.4629 52.8554 50.4573L51.5111 48.2296H54.2367L52.8926 50.4573Z" fill="white"/>
<path d="M24.2953 29.3142C24.3964 29.4211 24.5336 29.4812 24.6767 29.4812C24.8198 29.4812 24.9568 29.4211 25.058 29.3142L26.8518 27.418C27.0625 27.1954 27.0625 26.8344 26.8518 26.6118C26.6412 26.3892 26.2998 26.3891 26.0892 26.6117L24.6767 28.1049L23.9988 27.3882C23.7881 27.1656 23.4466 27.1655 23.2361 27.3881C23.0255 27.6108 23.0255 27.9718 23.2361 28.1943L24.2953 29.3142Z" fill="white"/>
<path d="M26.8518 34.6389C26.6412 34.4163 26.2998 34.4162 26.0892 34.6389L24.6767 36.132L23.9988 35.4153C23.7881 35.1925 23.4466 35.1926 23.2361 35.4152C23.0255 35.6378 23.0255 35.9988 23.2361 36.2214L24.2953 37.3412C24.3964 37.4482 24.5336 37.5082 24.6767 37.5082C24.8198 37.5082 24.9568 37.4482 25.058 37.3413L26.8518 35.4451C27.0625 35.2226 27.0625 34.8616 26.8518 34.6389Z" fill="white"/>
<path d="M33.3188 29.3142C33.4241 29.4255 33.5622 29.4812 33.7002 29.4812C33.8382 29.4812 33.9762 29.4255 34.0816 29.3142L35.8753 27.418C36.0859 27.1953 36.0859 26.8344 35.8753 26.6117C35.6646 26.3892 35.3232 26.3892 35.1126 26.6117L33.7002 28.1049L33.0222 27.3881C32.8115 27.1656 32.4701 27.1656 32.2595 27.3881C32.0489 27.6109 32.0489 27.9718 32.2595 28.1944L33.3188 29.3142Z" fill="white"/>
<path d="M42.3344 29.3142C42.4355 29.4211 42.5726 29.4812 42.7157 29.4812C42.8588 29.4812 42.9959 29.4211 43.097 29.3142L44.8908 27.418C45.1015 27.1954 45.1015 26.8344 44.8909 26.6118C44.6803 26.3892 44.3388 26.3891 44.1283 26.6117L42.7157 28.1049L42.0378 27.3882C41.8272 27.1656 41.4857 27.1655 41.2752 27.3881C41.0645 27.6108 41.0645 27.9718 41.2751 28.1943L42.3344 29.3142Z" fill="white"/>
<path d="M48.2264 18.771H40.3624V18.2798C40.3624 17.9649 40.121 17.7097 39.8231 17.7097C39.5252 17.7097 39.2839 17.9649 39.2839 18.2798V18.771H28.8462V18.2798C28.8462 17.9649 28.6048 17.7097 28.3069 17.7097C28.009 17.7097 27.7676 17.9649 27.7676 18.2798V18.771H23.8742C23.5763 18.771 23.3349 19.0262 23.3349 19.3411C23.3349 19.656 23.5763 19.9112 23.8742 19.9112H27.7675V20.9304C27.7675 21.2453 28.0089 21.5005 28.3068 21.5005C28.6047 21.5005 28.8461 21.2453 28.8461 20.9304V19.9112H39.2838V20.9304C39.2838 21.2453 39.5252 21.5005 39.8231 21.5005C40.121 21.5005 40.3624 21.2453 40.3624 20.9304V19.9112H48.1139V23.3798H20.0161V19.9112H21.718C22.0159 19.9112 22.2572 19.656 22.2572 19.3411C22.2572 19.0262 22.0159 18.771 21.718 18.771H19.9037C19.3709 18.771 18.9375 19.2291 18.9375 19.7923V23.4987C18.9375 24.0619 19.3709 24.5201 19.9037 24.5201H19.9954V54.7653C19.9954 55.7928 20.7861 56.6286 21.7579 56.6286H41.6588C41.9567 56.6286 42.1981 56.3734 42.1981 56.0585C42.1981 55.7436 41.9567 55.4884 41.6588 55.4884H39.1145V48.6014H47.0561V54.7653C47.0561 55.164 46.7492 55.4884 46.3721 55.4884H43.8149C43.517 55.4884 43.2756 55.7436 43.2756 56.0585C43.2756 56.3734 43.517 56.6286 43.8149 56.6286H46.3721C47.344 56.6286 48.1346 55.7928 48.1346 54.7653V24.52H48.2264C48.7591 24.52 49.1925 24.0619 49.1925 23.4986V19.7922C49.1925 19.2291 48.7591 18.771 48.2264 18.771ZM47.0561 39.434H39.1144V32.5471H47.056V39.434H47.0561ZM21.074 32.5471H29.0156V39.434H21.074V32.5471ZM38.0358 39.434H30.0942V32.5471H38.0358V39.434ZM21.074 40.5742H29.0156V47.4611H21.074V40.5742ZM30.0942 48.6013H38.0358V55.4882H30.0942V48.6013ZM30.0942 47.4611V40.5742H38.0358V47.4611H30.0942ZM38.0358 31.4069H30.0942V24.52H38.0358V31.4069ZM29.0156 24.52V31.407H21.074V24.52H29.0156ZM21.7579 55.4882C21.3808 55.4882 21.074 55.1638 21.074 54.7651V48.6012H29.0156V55.4882H21.7579ZM39.1144 47.4611V40.5742H47.056V47.4611H39.1144ZM47.0561 31.4069H39.1144V24.52H47.056V31.4069H47.0561Z" fill="white"/>
<path d="M36.4903 22.4712C36.7882 22.4712 37.0295 22.2161 37.0295 21.9012C37.0295 21.5862 36.7882 21.3311 36.4903 21.3311H31.6369C31.339 21.3311 31.0977 21.5862 31.0977 21.9012C31.0977 22.2161 31.339 22.4712 31.6369 22.4712H36.4903Z" fill="white"/>
</g>
<defs>
<linearGradient id="paint0_linear_1834_5197" x1="46.7415" y1="69.4047" x2="11.9329" y2="69.4047" gradientUnits="userSpaceOnUse">
<stop stop-color="#E53855"/>
<stop offset="0.583228" stop-color="#842031"/>
<stop offset="1" stop-color="#551A24"/>
</linearGradient>
<clipPath id="clip0_1834_5197">
<rect width="36.8232" height="38.9274" fill="white" transform="translate(18.9375 17.7051)"/>
</clipPath>
</defs>
</svg>
