<svg width="73" height="73" viewBox="0 0 73 73" fill="none" xmlns="http://www.w3.org/2000/svg">
<circle opacity="0.5" cx="36.6143" cy="36.1578" r="35.9815" fill="url(#paint0_linear_1_15114)"/>
<g opacity="0.5">
<path d="M45.9994 26.9715C45.9704 26.9608 45.9439 26.9446 45.9214 26.9236L43.1096 24.1118C43.1093 24.1115 43.109 24.1112 43.1087 24.1109C43.0865 24.088 43.0695 24.0606 43.059 24.0304C43.0486 24.0008 43.0447 23.9693 43.0476 23.938C43.3357 21.6342 44.6737 20.2494 46.2256 19.4029C47.791 18.5489 49.5587 18.2546 50.6261 18.1557C50.8251 18.1385 51.0253 18.1658 51.2123 18.2357C51.3997 18.3056 51.569 18.4166 51.708 18.5603C51.847 18.7041 51.9522 18.877 52.0159 19.0666C52.0794 19.2558 52.1 19.4567 52.0762 19.6548C51.9405 20.7113 51.5876 22.459 50.6875 23.9861C49.7954 25.4996 48.3786 26.7807 46.0889 26.9855C46.0584 26.9867 46.028 26.982 45.9994 26.9715Z" stroke="white" stroke-width="0.749615"/>
<path d="M20.7707 47.3421L41.7095 25.3002C42.6725 26.355 43.6814 27.367 44.7331 28.3334L22.7184 49.2903L22.7184 49.2904C22.4579 49.5383 22.1109 49.6747 21.7514 49.6703C21.3918 49.6659 21.0482 49.5211 20.794 49.2668C20.5397 49.0126 20.3949 48.669 20.3905 48.3094C20.3861 47.9499 20.5225 47.6029 20.7704 47.3425L20.7707 47.3421Z" stroke="white" stroke-width="0.749615"/>
<path d="M39.0156 35.8761L46.6508 43.5113C47.17 42.9697 48.4861 41.6911 48.9961 41.1718L41.4185 33.5942L39.0156 35.8761Z" fill="white"/>
<path d="M52.1666 44.3413L49.8156 41.9902C49.2853 42.5136 44.8536 46.9547 44.3125 47.4875L46.6693 49.8444C47.0329 50.2018 47.5223 50.4021 48.0321 50.4021C48.5419 50.4021 49.0314 50.2018 49.3949 49.8444L52.1724 47.0669C52.5302 46.7032 52.7302 46.2131 52.7291 45.7029C52.7281 45.1927 52.526 44.7035 52.1666 44.3413Z" fill="white"/>
<path d="M23.5664 26.7433L31.0863 34.2632C31.5758 33.7345 32.8545 32.396 33.3682 31.8603L25.9117 24.4038C25.6083 24.7051 23.5664 26.7433 23.5664 26.7433Z" fill="white"/>
<path d="M28.1202 20.5599L21.2861 17.5116C21.0837 17.4221 20.8589 17.396 20.6414 17.4366C20.4239 17.4772 20.2238 17.5827 20.0673 17.7392C19.9108 17.8956 19.8054 18.0958 19.7647 18.3133C19.7241 18.5308 19.7502 18.7555 19.8397 18.9579L22.8822 25.7979L28.1202 20.5599Z" fill="white"/>
<path d="M29.07 21.2461L36.4401 28.6162C35.9445 29.1521 34.6768 30.4774 34.1582 31.0191L26.7305 23.5914C27.5142 22.7962 28.4073 21.903 29.07 21.2461Z" fill="white"/>
<path d="M45.8405 44.3301L38.1823 36.6719C37.6511 37.2015 36.3053 38.4505 35.7852 38.9596L43.4952 46.6696C44.0167 46.1721 45.3095 44.8489 45.8405 44.3301Z" fill="white"/>
</g>
<defs>
<linearGradient id="paint0_linear_1_15114" x1="72.9707" y1="35.0334" x2="4.00608" y2="34.2838" gradientUnits="userSpaceOnUse">
<stop stop-color="#EB7C8F"/>
<stop offset="1" stop-color="#C86576" stop-opacity="0.301961"/>
</linearGradient>
</defs>
</svg>
