<svg width="72" height="70" viewBox="0 0 72 70" fill="none" xmlns="http://www.w3.org/2000/svg">
<g opacity="0.5">
<ellipse cx="35.8063" cy="35.1171" rx="35.7711" ry="34.193" fill="url(#paint0_linear_1_15136)"/>
<path d="M52.6117 19.9313C48.1089 15.4031 40.6776 15.6282 36.3905 20.3351C32.1031 15.6284 24.6721 15.403 20.1693 19.9314C15.6917 24.3905 15.8442 31.7334 20.4577 36.0373C18.0975 38.2915 19.4496 42.3423 22.6622 42.7372C22.4698 44.937 24.3422 46.9543 26.5569 46.9169C26.6927 49.3386 29.1233 51.0721 31.4536 50.4321C32.2181 53.3172 35.8933 54.3031 38.0017 52.1797C39.1992 50.9894 40.1515 50.2387 40.2122 48.436C42.1909 48.3808 43.9028 46.6456 43.933 44.6681C45.9306 44.6373 47.6711 42.8962 47.7019 40.8991C49.7742 40.8677 51.5711 38.9972 51.4746 36.8857L52.6116 35.7489C56.9726 31.3879 56.9726 24.2922 52.6117 19.9313ZM22.172 37.8575L23.2398 36.7896C23.5158 36.5136 23.8782 36.3757 24.2408 36.3757C25.4839 36.3674 26.1328 37.9044 25.2416 38.7914L24.1737 39.8592C22.7915 41.1317 20.8993 39.2403 22.172 37.8575ZM25.1495 43.0043C25.1495 42.6261 25.2968 42.2706 25.5641 42.0033L26.6326 40.935C26.8998 40.668 27.255 40.5209 27.6328 40.5209C28.8865 40.5188 29.522 42.0521 28.6337 42.9373L27.6915 43.8795C27.4035 44.2059 27.0079 44.4268 26.5649 44.4197C25.8042 44.4353 25.1338 43.7651 25.1495 43.0043ZM29.4587 47.6484C28.9096 47.1215 28.9096 46.1736 29.4587 45.6467L30.4009 44.7044C30.9502 44.0523 31.9146 43.9674 32.5284 44.5788C33.0802 45.1307 33.0802 46.0285 32.5284 46.5805L31.4604 47.6484C30.9086 48.2005 30.0106 48.2004 29.4587 47.6484ZM37.3024 49.3446L36.2346 50.4124C35.9672 50.6798 35.6118 50.8271 35.2337 50.8271C34.8556 50.8271 34.5001 50.6798 34.2328 50.4124C33.6838 49.8855 33.6835 48.9376 34.2328 48.4107L35.3006 47.3429C35.8524 46.791 36.7505 46.791 37.3023 47.3428C37.8515 47.8697 37.8516 48.8177 37.3024 49.3446ZM48.5623 37.9905C48.0353 38.5396 47.0874 38.5397 46.5605 37.9905L40.9991 32.4291L39.2319 34.1963L44.7933 39.7577C45.3452 40.3097 45.3452 41.2076 44.7933 41.7595C44.2414 42.3116 43.3435 42.3114 42.7916 41.7595L37.3245 36.2924L37.2302 36.1981L35.463 37.9653L35.5573 38.0596L41.0244 43.5267C41.5763 44.0786 41.5763 44.9766 41.0244 45.5285C40.4725 46.0804 39.5745 46.0804 39.0226 45.5285L39.0215 45.5296C38.006 44.5479 36.5869 44.2246 35.3051 44.5599C34.8971 42.8925 33.221 41.6303 31.5355 41.667C31.4538 39.8724 29.9366 38.2512 28.1436 38.0575C28.3802 34.9784 24.9985 32.858 22.3298 34.3748C18.6131 31.0548 18.3842 25.2266 21.9367 21.6985C25.4688 18.1417 31.3049 18.3774 34.6235 22.1023L31.5339 25.1919L34.0096 27.6676C35.9113 29.5694 38.8417 29.8311 41.0266 28.4528L48.5625 35.9888C49.1141 36.5406 49.1141 37.4386 48.5623 37.9905ZM50.8445 33.9817L50.4637 34.3624C50.4203 34.3146 50.3756 34.2676 50.3296 34.2216L41.1248 25.0168L40.2412 25.9003C39.0104 27.1311 37.0077 27.1313 35.7766 25.9003L35.0682 25.1919L38.5615 21.6985C47.0474 13.8881 58.6532 25.5013 50.8445 33.9817Z" fill="white"/>
</g>
<defs>
<linearGradient id="paint0_linear_1_15136" x1="64.4977" y1="41.129" x2="-4.06445" y2="39.2814" gradientUnits="userSpaceOnUse">
<stop stop-color="#F6BD98"/>
<stop offset="1" stop-color="#9C7051" stop-opacity="0.301961"/>
</linearGradient>
</defs>
</svg>
