<svg width="73" height="73" viewBox="0 0 73 73" fill="none" xmlns="http://www.w3.org/2000/svg">
<circle cx="36.3453" cy="36.2765" r="35.7711" fill="url(#paint0_linear_1_15096)"/>
<path d="M36.7221 13.0734C36.0689 13.0734 35.5391 12.5144 35.5391 11.8248V8.08013C35.5391 7.3905 36.0689 6.83154 36.7221 6.83154C37.3758 6.83154 37.9057 7.3905 37.9057 8.08013V11.8248C37.9057 12.5144 37.3758 13.0734 36.7221 13.0734Z" fill="white"/>
<path d="M24.4357 18.4433C24.1328 18.4433 23.83 18.3217 23.5989 18.078L21.0888 15.4298C20.6267 14.9424 20.6267 14.1525 21.0888 13.6644C21.5514 13.177 22.3001 13.177 22.7622 13.6644L25.2724 16.3126C25.7345 16.8 25.7345 17.5899 25.2724 18.078C25.0408 18.3217 24.7385 18.4433 24.4357 18.4433Z" fill="white"/>
<path d="M19.3426 31.4092H15.7924C15.1392 31.4092 14.6094 30.8503 14.6094 30.1606C14.6094 29.4716 15.1392 28.9126 15.7924 28.9126H19.3426C19.9963 28.9126 20.5261 29.4716 20.5261 30.1606C20.5261 30.8503 19.9963 31.4092 19.3426 31.4092Z" fill="white"/>
<path d="M21.9255 47.0219C21.6226 47.0219 21.3198 46.9003 21.0888 46.656C20.6267 46.1685 20.6267 45.3787 21.0888 44.8912L23.5989 42.2431C24.061 41.7556 24.8098 41.7556 25.2724 42.2431C25.7345 42.7305 25.7345 43.521 25.2724 44.0085L22.7622 46.656C22.5312 46.9003 22.2283 47.0219 21.9255 47.0219Z" fill="white"/>
<path d="M51.5211 47.0219C51.2188 47.0219 50.9159 46.9003 50.6849 46.656L48.1747 44.0085C47.7126 43.521 47.7126 42.7305 48.1747 42.2431C48.6368 41.7556 49.3856 41.7556 49.8482 42.2431L52.3578 44.8912C52.8204 45.3787 52.8204 46.1685 52.3578 46.656C52.1268 46.9003 51.8239 47.0219 51.5211 47.0219Z" fill="white"/>
<path d="M57.6551 31.4092H54.1049C53.4517 31.4092 52.9219 30.8503 52.9219 30.1606C52.9219 29.4716 53.4517 28.9126 54.1049 28.9126H57.6551C58.3088 28.9126 58.8386 29.4716 58.8386 30.1606C58.8386 30.8503 58.3088 31.4092 57.6551 31.4092Z" fill="white"/>
<path d="M49.0114 18.4433C48.7086 18.4433 48.4057 18.3217 48.1747 18.078C47.7126 17.5899 47.7126 16.8 48.1747 16.3126L50.6849 13.6644C51.147 13.177 51.8957 13.177 52.3578 13.6644C52.8204 14.1525 52.8204 14.9424 52.3578 15.4298L49.8482 18.078C49.6171 18.3217 49.3143 18.4433 49.0114 18.4433Z" fill="white"/>
<path d="M41.0791 53.3115H32.3574C31.7042 53.3115 31.1743 52.7525 31.1743 52.0634C31.1743 47.9646 29.5216 43.926 26.521 40.6896C23.8981 37.8602 22.4531 34.1224 22.4531 30.1633C22.4531 25.8816 24.1888 21.7865 27.2151 18.9287C30.2794 16.0364 34.2341 14.7099 38.3535 15.1915C44.7966 15.9473 50.0631 21.4195 50.8771 28.2027C51.4424 32.9106 49.9544 37.514 46.7956 40.8315C43.8719 43.902 42.2621 47.891 42.2621 52.0634C42.2621 52.7525 41.7323 53.3115 41.0791 53.3115ZM33.4974 50.8148H39.9365C40.2272 46.4323 42.0442 42.2988 45.1257 39.0629C47.7613 36.2948 49.0009 32.4509 48.5292 28.5158C47.8513 22.8633 43.4618 18.3037 38.0916 17.6727C34.6522 17.2716 31.3487 18.3773 28.7936 20.7891C26.2682 23.1737 24.8197 26.5904 24.8197 30.1633C24.8197 33.4653 26.025 36.5839 28.2132 38.944C31.3477 42.3238 33.1971 46.4979 33.4974 50.8148Z" fill="white"/>
<path d="M32.5028 60.09C31.9633 60.09 31.4764 59.6991 31.3506 59.1214C31.2044 58.4499 31.6018 57.78 32.2383 57.6248L40.8119 55.5448C41.4494 55.3933 42.085 55.8098 42.2306 56.4813C42.3767 57.1534 41.9793 57.8232 41.3423 57.9779L32.7692 60.0585C32.6802 60.0799 32.5902 60.09 32.5028 60.09Z" fill="white"/>
<path d="M32.5028 64.3564C31.9633 64.3564 31.4765 63.9654 31.3506 63.3878C31.2045 62.7158 31.6013 62.0459 32.2384 61.8912L40.8119 59.8101C41.4495 59.658 42.085 60.0751 42.2306 60.7472C42.3767 61.4187 41.9798 62.0885 41.3423 62.2438L32.7692 64.3244C32.6802 64.3457 32.5903 64.3564 32.5028 64.3564Z" fill="white"/>
<defs>
<linearGradient id="paint0_linear_1_15096" x1="72.1164" y1="35.8834" x2="0.574218" y2="35.8834" gradientUnits="userSpaceOnUse">
<stop stop-color="#D2CBF9"/>
<stop offset="1" stop-color="#434059"/>
</linearGradient>
</defs>
</svg>
