<svg width="72" height="73" viewBox="0 0 72 73" fill="none" xmlns="http://www.w3.org/2000/svg">
<circle cx="35.8531" cy="36.7506" r="35.7711" fill="url(#paint0_linear_1_15086)"/>
<path d="M54.9003 44.1193C54.9003 45.3001 53.7025 46.2594 52.2311 46.2594H36.2163V51.7937L29.3143 46.2594H20.2015C18.7302 46.2594 17.5324 45.3001 17.5324 44.1193V26.9985C17.5324 25.8177 18.7302 24.8584 20.2015 24.8584H52.2311C53.7025 24.8584 54.9003 25.8177 54.9003 26.9985V44.1193ZM52.2311 22.7183H20.2015C17.2535 22.7183 14.8633 24.6347 14.8633 26.9985V44.1193C14.8633 46.483 17.2535 48.3995 20.2015 48.3995H28.2089L38.8855 56.9599V48.3995H52.2311C55.1792 48.3995 57.5694 46.483 57.5694 44.1193V26.9985C57.5694 24.6347 55.1792 22.7183 52.2311 22.7183Z" fill="#EFF4F7"/>
<rect x="22.1719" y="29.3857" width="26.3023" height="2.10418" fill="white"/>
<rect x="22.1719" y="33.5942" width="26.3023" height="2.10418" fill="white"/>
<rect x="22.1719" y="37.8027" width="15.7814" height="2.10418" fill="white"/>
<defs>
<linearGradient id="paint0_linear_1_15086" x1="68.2707" y1="36.7506" x2="0.0820303" y2="36.7506" gradientUnits="userSpaceOnUse">
<stop stop-color="#7E6EF7"/>
<stop offset="0.894716" stop-color="#2F2C48"/>
</linearGradient>
</defs>
</svg>
