<svg width="73" height="73" viewBox="0 0 73 73" fill="none" xmlns="http://www.w3.org/2000/svg">
<circle opacity="0.5" cx="36.7276" cy="36.1578" r="35.9815" fill="url(#paint0_linear_1_15127)"/>
<path d="M37.7026 29.8502C37.0351 26.8846 34.0896 25.0222 31.1239 25.6898C28.1585 26.3573 26.2962 29.3029 26.9637 32.2683C27.6312 35.2339 30.5768 37.0963 33.5422 36.4287C33.5469 36.4279 33.5513 36.4264 33.5553 36.4256C36.5032 35.7758 38.3663 32.8595 37.7165 29.9116C37.7118 29.891 37.7071 29.8701 37.7026 29.8502ZM32.3064 35.0226C30.1227 35.0343 28.3427 33.2729 28.3312 31.0889C28.321 29.225 29.6145 27.607 31.4353 27.2062C31.7238 27.1406 32.0182 27.1066 32.3142 27.1059C34.4974 27.1631 36.221 28.9792 36.1638 31.1631C36.1175 32.9329 34.9013 34.4554 33.1853 34.8917C32.9071 34.9557 32.6225 34.9889 32.3372 34.9917L32.3064 35.0226Z" fill="white" fill-opacity="0.5"/>
<path d="M57.6161 22.6809C57.3585 22.6702 57.1126 22.7888 56.9608 22.9971L54.4401 26.4119C53.8457 27.1852 52.7473 27.3516 51.9502 26.7897C51.157 26.2039 50.9879 25.0862 51.5724 24.2922L53.9465 21.07C54.2104 20.7353 54.1532 20.2511 53.8188 19.9875C53.7106 19.9029 53.5821 19.848 53.4454 19.8287C49.75 19.269 46.3002 21.8114 45.7406 25.5079C45.6204 26.3027 45.6429 27.1128 45.8062 27.8998L44.8967 28.8095L44.3261 26.2964C44.2307 25.8817 43.8166 25.6226 43.402 25.7182H43.4012L41.2042 26.2193C40.8233 25.5186 40.36 24.8665 39.8242 24.2768L41.0268 22.3726C41.2541 22.0126 41.1477 21.5371 40.7877 21.3088L37.473 19.2196C37.113 18.9923 36.6375 19.0987 36.4094 19.4587L35.2068 21.3704C34.4546 21.1439 33.6783 21.0067 32.8943 20.9621L32.4007 18.765C32.3054 18.3501 31.8912 18.0912 31.4766 18.1869H31.4758L27.6213 19.0579C27.2043 19.1418 26.9337 19.5488 27.0186 19.9658C27.0194 19.969 27.0201 19.9721 27.0201 19.9752L27.5367 22.1412C26.836 22.5221 26.1836 22.9853 25.5941 23.5212L23.69 22.3186C23.33 22.0913 22.8542 22.1976 22.6261 22.5576L20.537 25.8723C20.3097 26.2324 20.4161 26.7079 20.7761 26.936L22.6802 28.1386C22.4534 28.891 22.3163 29.6673 22.2716 30.4513L20.0824 31.0063C19.6678 31.1019 19.4086 31.5158 19.5042 31.9306V31.9314L20.3675 35.7857C20.4631 36.2003 20.8772 36.4595 21.2918 36.3639H21.2926L23.4896 35.8706C23.8706 36.5705 24.3338 37.2227 24.8694 37.8131L23.667 39.7172C23.4651 40.0778 23.5845 40.5335 23.9367 40.75L27.2514 42.8392C27.3742 42.9154 27.5158 42.9557 27.66 42.9549H27.7912C27.9892 42.9094 28.1603 42.7874 28.269 42.6158L29.4716 40.7116C30.2238 40.9382 31.0001 41.0753 31.7841 41.12L31.9307 41.7677L30.1423 43.5561C29.6906 43.4636 29.2313 43.4173 28.7701 43.4173C25.0275 43.4228 21.9988 46.4609 22.004 50.2033C22.0056 51.415 22.3325 52.6046 22.9501 53.6468C23.1696 54.0115 23.643 54.1294 24.0077 53.9096C24.0939 53.8579 24.1694 53.7895 24.2295 53.7085L26.8738 50.1241C27.4687 49.3463 28.5729 49.1796 29.3713 49.7463C30.1569 50.3159 30.3419 51.409 29.7878 52.2054L27.267 55.628C27.0241 55.9778 27.1111 56.4581 27.4612 56.701C27.5599 56.7698 27.6733 56.8136 27.7912 56.8306C28.1428 56.886 28.4987 56.9145 28.855 56.9153C30.651 56.9208 32.3754 56.2078 33.642 54.9343C35.2517 53.3179 35.9438 51.002 35.4845 48.7673L51.0715 33.1881C51.5233 33.2806 51.9826 33.3269 52.4435 33.3269C56.1861 33.3237 59.2171 30.288 59.214 26.5454C59.2132 25.3135 58.8764 24.1056 58.2405 23.0512C58.107 22.8312 57.8726 22.6917 57.6161 22.6809ZM29.4176 39.0466C29.0753 38.9225 28.6931 39.0541 28.5002 39.3624L27.3901 41.1278L25.3783 39.8714L26.4882 38.106C26.6818 37.7977 26.634 37.3961 26.3727 37.1424C25.6349 36.4247 25.0345 35.5782 24.5995 34.6447C24.4477 34.3126 24.0848 34.1329 23.7284 34.2131L21.7012 34.6758L21.1769 32.363L23.2043 31.9006C23.5628 31.8196 23.8149 31.4975 23.8058 31.1296C23.7956 30.0989 23.973 29.0745 24.3299 28.1078C24.454 27.7655 24.322 27.3833 24.0137 27.1904L22.2562 26.0727L23.5204 24.0607L25.2856 25.1708C25.5926 25.3665 25.9941 25.3218 26.2491 25.0629C26.9668 24.3251 27.8134 23.7247 28.7469 23.29C29.0761 23.1358 29.2524 22.7726 29.1709 22.4189L28.7082 20.3914L31.021 19.8673L31.4834 21.8945C31.5644 22.253 31.8865 22.5051 32.2544 22.496C33.2849 22.4881 34.308 22.6663 35.2763 23.0201C35.6183 23.1442 36.0007 23.0125 36.1936 22.7039L37.3034 20.9388L39.3155 22.2031L38.2053 23.9682C38.012 24.2765 38.0598 24.6781 38.3211 24.9318C39.0704 25.6495 39.6815 26.4989 40.1249 27.4371C40.279 27.7663 40.6422 27.9429 40.996 27.8611L43.0234 27.3987L43.64 30.112L33.2642 40.4572L33.1871 40.1719C33.1061 39.8134 32.784 39.5613 32.4161 39.5707C31.3933 39.5777 30.3775 39.4003 29.4176 39.0466ZM56.1435 30.2509C55.1661 31.2391 53.8334 31.7943 52.4435 31.7927C51.9672 31.7927 51.4922 31.7279 51.0329 31.5999C50.7583 31.5181 50.4615 31.5952 50.2619 31.8003L34.0736 47.9885C33.8685 48.1881 33.7915 48.4852 33.8732 48.7595C34.3764 50.5803 33.8646 52.5312 32.5319 53.8702C31.6885 54.7191 30.5768 55.2502 29.3867 55.3735L31.0364 53.1381C32.1264 51.6619 31.8134 49.582 30.3372 48.492C29.765 48.0695 29.0729 47.8422 28.3615 47.8422C27.3068 47.8453 26.3155 48.3449 25.6864 49.1911L23.8287 51.7118C22.9775 48.9492 24.5279 46.0198 27.2898 45.1689C28.2473 44.8737 29.2694 44.8598 30.2345 45.1287C30.5089 45.2104 30.8057 45.1334 31.0055 44.9283L47.1938 28.7014C47.3978 28.5018 47.4759 28.205 47.3942 27.9306C46.8884 26.1098 47.401 24.1579 48.7355 22.8197C49.564 21.9865 50.6511 21.4592 51.819 21.3244L50.3311 23.3749C49.2411 24.8518 49.5556 26.9331 51.0326 28.0231C52.5096 29.1131 54.5908 28.7986 55.6811 27.3216L57.423 24.955C58.0252 26.8205 57.5311 28.8657 56.1435 30.2509Z" fill="white" fill-opacity="0.5"/>
<defs>
<linearGradient id="paint0_linear_1_15127" x1="73.084" y1="35.0334" x2="4.11936" y2="34.2838" gradientUnits="userSpaceOnUse">
<stop stop-color="#64C9B3"/>
<stop offset="1" stop-color="#21353C"/>
</linearGradient>
</defs>
</svg>
