<svg width="1480" height="940" viewBox="0 0 1480 940" fill="none" xmlns="http://www.w3.org/2000/svg">
<g opacity="0.2" clip-path="url(#clip0_295_5122)" filter="url(#filter0_d_295_5122)">
<g filter="url(#filter1_d_295_5122)">
<g filter="url(#filter2_d_295_5122)">
<path d="M513.05 290.335C512.95 269.17 474.186 245.37 457.627 233.101C424.884 208.833 390.827 186.421 357.091 163.652C323.355 140.883 289.523 118.176 257.351 93.1788C236.462 76.9522 211.917 58.6767 197.751 35.5065C167.571 -13.8703 262.726 -6.53796 287.375 -7.6203C350.075 -10.3794 422.002 -9.11896 480.775 -34.8334C515.862 -50.1834 529.853 -75.9271 522.317 -113.447C519.888 -125.649 512.698 -139.691 518.789 -151.579C525.289 -164.274 540.255 -171.601 552.673 -176.514C597.968 -194.414 650.045 -196.487 697.973 -198.733C749.65 -201.202 801.812 -200.482 853.125 -200.672C874.883 -200.755 897.606 -208.695 918.325 -215.151C945.487 -223.614 972.325 -233.118 999.265 -242.309C1058.53 -262.479 1119.59 -283.724 1182.29 -288.849C1221.55 -292.059 1264.47 -287.719 1294.97 -259.803C1310.28 -245.786 1318.3 -224.95 1327.15 -206.436C1337.87 -184.074 1348.16 -161.497 1359.57 -139.487C1396.33 -68.6005 1448.81 0.66864 1533.99 4.15045C1546.87 4.67493 1559.53 2.9657 1572.35 2.64435C1580.52 2.44702 1587.79 4.45264 1590.83 13.1346C1598.46 34.9161 1574.47 69.301 1564.63 86.5825C1543.09 124.412 1518.8 160.543 1496.04 197.613C1480.99 222.129 1454.93 255.631 1454.66 285.418C1454.42 311.958 1489.15 331.14 1508.06 344.213C1525.78 356.452 1557.88 373.583 1559.83 398.476C1560.77 410.548 1552.94 420.554 1544.76 428.319C1530.42 441.898 1513.9 451.476 1501 466.969C1479.85 492.385 1462.18 527.357 1465.05 561.606C1467.05 585.334 1480.37 600.879 1497.32 615.736C1504.44 621.98 1510.22 626.401 1510.6 636.542C1511.2 652.646 1505 669.687 1499.89 684.617C1481.6 738.049 1455.62 789.716 1426.72 837.957C1412.28 862.065 1396.68 886.099 1377.53 906.665C1365 920.175 1348.08 936.247 1328.95 936.228C1306.81 936.228 1283.37 928.106 1261.85 922.032C1221.64 910.682 1181.92 897.56 1142.36 884.098C1050.87 852.954 960.234 819.287 870.463 783.098C807.231 757.56 742.656 731.993 683.207 698.046C671.41 691.236 660.461 683.459 650.525 674.833C639.686 665.618 626.235 661.495 612.596 658.421C527.946 639.343 435.207 653.99 350.205 663.174C328.629 665.505 307.054 667.836 285.418 669.469C266.818 670.871 244.55 674.889 226.473 668.852C190.852 656.971 221.992 613.18 235.157 595.337C281.508 532.511 341.31 479.361 396.739 425.092C423.094 399.249 449.648 373.473 474.57 346.165C487.546 331.972 513.135 308.888 513.05 290.335Z" stroke="#5BE7C3" stroke-width="0.738542" stroke-miterlimit="10" shape-rendering="crispEdges"/>
</g>
<g filter="url(#filter3_d_295_5122)">
<path d="M529.023 286.767C514.816 264.371 489.89 247.82 469.199 232.242C439.423 209.816 408.712 188.636 378.463 166.846C349.863 146.241 321.197 125.401 294.709 102C278.557 87.7297 258.292 70.6655 250.641 49.5601C234.041 3.81409 323.323 10.7543 345.363 9.55786C400.156 6.59644 462.277 5.91785 512.969 -18.1665C544.622 -33.2076 557.626 -58.1503 550.875 -92.779C548.542 -104.76 544.337 -114.989 549.66 -126.908C555.816 -140.703 569.974 -149.304 582.954 -155.374C623.613 -174.393 671.673 -178.436 715.747 -181.797C761.279 -185.271 808.719 -187.72 852.787 -185.178C870.409 -184.167 890.693 -189.911 908.133 -194.315C934.967 -201.101 961.533 -208.931 988.233 -216.211C1042.5 -231.018 1098.17 -245.282 1154.62 -246.904C1195.38 -248.076 1237.87 -241.722 1271.78 -217.161C1306.14 -192.255 1321.39 -153.648 1340.45 -116.946C1373.36 -53.4937 1417.81 23.6548 1493.95 37.0608C1505.49 39.0964 1516.59 37.9924 1528.12 38.4919C1534.05 38.7417 1540.8 39.5468 1543.81 45.4855C1551.62 60.9087 1530.22 89.1118 1523.02 100.923C1503.12 133.571 1480.76 164.623 1459.91 196.641C1443.35 222.065 1422.36 250.315 1415.96 280.453C1408.19 317.025 1458.97 343.047 1476.83 368.799C1507.79 413.452 1449.13 438.895 1420.21 460.186C1387 484.629 1359.59 529.221 1389.36 567.039C1400.75 581.5 1414.76 590.119 1419.85 608.991C1427.8 638.506 1421.79 672.233 1415.33 701.406C1405.61 745.264 1390.22 788.647 1369.31 828.288C1354.32 856.671 1329.46 901.174 1293.06 897.833C1268.55 895.606 1243.64 887.468 1219.77 880.275C1184.04 869.509 1148.76 857.239 1113.67 844.492C1032.66 815.15 952.55 782.799 874.01 747.213C820.42 722.924 670.935 623.661 659.687 620.124C626.15 609.575 588.019 611.431 553.443 613.067C507.449 615.238 461.686 620.864 415.959 626.078C394.193 628.546 372.317 631.563 350.435 632.777C334.861 633.641 314.407 634.382 300.765 625.183C274.137 607.236 303.803 566.173 316.072 548.799C353.656 495.539 401.2 449.417 445.778 402.258C467.654 379.104 489.864 355.987 509.722 330.976C517.727 320.878 537.804 300.599 529.023 286.767Z" stroke="#5ACEF2" stroke-width="0.738542" stroke-miterlimit="10" shape-rendering="crispEdges"/>
</g>
<g filter="url(#filter4_d_295_5122)">
<path d="M548.679 275.282C509.879 230.468 456.328 197.137 410.11 159.709C386.91 140.918 363.57 121.615 343.562 99.2316C333.154 87.5932 320.162 72.8743 318.153 56.651C312.794 13.2495 393.261 19.1183 417.346 17.4706C463.91 14.2744 516.514 11.8483 558.759 -10.2995C584.569 -23.8387 597.279 -46.0613 592.459 -75.2693C590.32 -88.2289 586.991 -99.2379 592.459 -111.963C598 -124.854 609.544 -133.951 621.234 -140.77C654.827 -160.381 696.573 -166.651 734.395 -171.325C778.659 -176.761 823.419 -178.888 868.14 -177.681C907.268 -176.638 946.207 -188.37 984.411 -196.102C1035.02 -206.342 1086.55 -215.281 1138.34 -213.93C1179.24 -212.856 1220.47 -204.421 1255.43 -182C1290.96 -159.167 1312.32 -124.992 1331.58 -88.1132C1360.7 -32.3632 1396.98 42.3442 1460.86 63.5171C1470.15 66.6026 1478.81 66.9423 1488.39 67.4793C1493.04 67.7382 1499.05 67.819 1501.36 72.7495C1506.91 84.6251 1486.38 107.644 1480.65 115.666C1462.36 141.277 1442.53 165.732 1423.79 191.003C1406.29 214.596 1387.23 239.181 1376.36 266.828C1359.06 310.859 1414.36 336.605 1412.82 378.562C1411.85 404.611 1387.3 423.291 1367.86 436.213C1343.92 452.103 1309.45 462.551 1297.47 491.549C1288.55 513.148 1302.55 525.718 1313.33 542.109C1331.61 569.879 1332.86 607.523 1330.95 639.668C1328.39 683.106 1318.37 727.187 1301.32 767.114C1293.59 785.214 1284.12 804.042 1270.19 818.1C1257.13 831.275 1244.77 834.646 1227.32 831.954C1173.9 823.684 1119.97 800.635 1068.74 780.049C1004.38 754.179 940.911 725.619 879.333 693.486C837.344 671.572 794.406 648.388 757.551 618.112C747.945 610.219 738.109 601.641 731.085 591.23C725.775 583.404 723.521 576.944 714.571 572.476C688.044 559.238 651.146 562.701 622.724 564.077C577.278 566.267 532.05 572.1 486.883 577.351C460.526 580.437 410.876 590.144 389.829 566.861C371.663 546.756 393.584 512.475 404.781 494.761C433.106 449.969 469.542 410.662 503.348 370.185C518.841 351.635 534.942 332.942 547.737 312.322C551.006 307.064 556.243 300.096 557.142 293.71C558.151 286.39 553.442 280.805 548.679 275.282Z" stroke="#5BE7C3" stroke-width="0.738542" stroke-miterlimit="10" shape-rendering="crispEdges"/>
</g>
<g filter="url(#filter5_d_295_5122)">
<path d="M552.016 285.715C516.164 246.091 472.971 213.537 434.482 176.458C417.224 159.832 399.796 142.392 386.647 122.109C379.574 111.203 372.062 97.4739 374.014 83.9182C379.614 45.01 445.791 48.5243 472.529 46.2455C512.258 42.8978 557.9 39.526 593.029 18.5471C616.041 4.80981 624.669 -15.4881 620.373 -41.6614C615.761 -69.7371 626.074 -90.1166 649.542 -105.78C678.965 -125.401 716.106 -133.398 750.268 -139.082C791.255 -145.881 833.017 -148.907 874.799 -148.103C915.348 -147.313 954.634 -154.217 994.916 -158.707C1048.32 -164.654 1103.44 -167.588 1156.25 -155.397C1202.23 -144.781 1243.75 -121.387 1274.88 -85.2119C1307.4 -47.4485 1323.5 0.124084 1349.9 41.8971C1366.37 67.9563 1389.33 102.424 1420.1 112.549C1430.36 115.928 1449.07 111.369 1440.87 127.989C1436.18 137.494 1427.41 145.831 1420.49 153.6C1409.3 166.156 1397.74 178.366 1386.36 190.748C1362.1 217.141 1336.12 244.102 1317.94 275.358C1295.03 314.71 1329.08 344.996 1324.93 384.899C1322.7 406.372 1308.01 423.51 1292.47 436.974C1282.47 445.455 1271.67 453.254 1260.17 460.294C1248.43 467.655 1234.55 473.264 1224.31 482.781C1209.73 496.324 1216.06 512.356 1218.8 529.865C1223.61 560.716 1224.67 591.893 1221.95 622.921C1218.62 660.958 1210.81 700.082 1194.36 734.651C1187.96 748.108 1179.86 762.375 1167.82 771.397C1155.77 780.42 1143.33 779.806 1129.53 777.086C1088.62 769.057 1047.79 750.375 1008.98 732.668C960.399 710.506 912.78 685.732 867.299 657.555C835.907 638.102 804.412 617.085 778.149 590.708C770.221 582.957 763.258 574.555 757.367 565.634C753.332 559.34 751.167 551.22 745.323 546.485C727.032 531.719 690.31 536.128 668.86 536.986C626.05 538.697 583.916 546.83 541.161 548.809C517.827 549.891 481.281 552.607 464.146 532.418C448.031 513.435 462.627 483.547 472.258 465.262C491.187 429.306 516.617 397.271 539.411 363.848C548.781 350.094 559.05 335.708 565.12 320C570.518 306.003 561.199 295.874 552.016 285.715Z" stroke="#5ACEF2" stroke-width="0.738542" stroke-miterlimit="10" shape-rendering="crispEdges"/>
</g>
<g filter="url(#filter6_d_295_5122)">
<path d="M560.835 286.363C532.298 251.494 497.895 220.542 469.152 185.106C452.327 164.355 423.352 129.468 436.365 100.211C450.639 68.0622 500.4 67.1863 529.158 64.5979C563.391 61.5174 603.592 57.3021 632.888 37.2291C642.154 30.8833 650.047 22.4835 653.388 11.4196C656.97 -0.421082 653.054 -10.7815 652.544 -22.6322C651.475 -47.4975 666.084 -67.4607 685.416 -81.1697C712.739 -100.553 746.905 -109.717 779.176 -116.106C815.531 -123.292 852.784 -126.853 890.149 -126.713C925.742 -126.59 960.958 -127.392 996.587 -128.317C1043.19 -129.551 1090.43 -127.558 1135.63 -114.984C1180.15 -102.588 1220.63 -79.3572 1252.43 -45.1855C1283.45 -11.8405 1304.38 28.9176 1322.71 70.4341C1333.11 93.9957 1350.68 129.213 1375.49 141.119C1386.52 146.416 1397.35 146.052 1385.62 159.83C1370.85 177.178 1350.94 191.097 1333.83 205.935C1309.15 227.346 1283.85 249.178 1263.13 274.635C1249.9 290.892 1244 306.666 1244.91 327.714C1245.61 343.749 1248.81 359.616 1247.2 375.712C1243.41 413.492 1214.13 439.399 1188.24 463.524C1171.58 479.037 1156.37 490.87 1147.8 512.943C1137.66 539.029 1133.4 567.41 1126.63 594.496C1119.18 624.239 1110.59 655.179 1094.34 681.377C1079.88 704.7 1062.29 715.162 1035.96 708.876C994.9 699.078 954.43 674.949 917.975 652.637C880.875 629.929 844.404 604.398 813.656 573.187C797.056 556.333 785.726 536.543 770.984 518.436C752.441 495.707 710.491 504.313 685.561 506.237C644.176 509.432 513.955 533.336 525.971 455.915C530.986 423.6 550.738 393.776 565.182 365.259C571.169 353.425 579.833 339.223 581.187 325.661C582.663 310.889 569.414 296.859 560.835 286.363Z" stroke="#FF8062" stroke-width="0.738542" stroke-miterlimit="10" shape-rendering="crispEdges"/>
</g>
<g filter="url(#filter7_d_295_5122)">
<path d="M575.897 289.324C554.089 257.726 527.991 227.875 509.279 193.746C497.14 171.644 485.22 142.113 500.879 118.732C518.553 92.3395 557.525 86.1902 586.161 82.8275C615.661 79.3657 650.886 76.4534 675 56.4436C682.672 50.0695 689 41.475 690.174 31.1828C691.309 21.3103 688.104 11.4378 689.166 1.38708C691.545 -21.1837 705.013 -39.7806 722.378 -53.269C773.745 -93.1779 850.197 -102.048 912.171 -103.091C943.192 -103.61 975.117 -100.888 1006.34 -98.9384C1046.85 -96.4082 1087.43 -90.9791 1126.06 -77.892C1208.21 -50.0761 1263.28 11.6135 1301.73 88.3774C1313.83 112.54 1323.1 138.683 1342.06 158.101C1351.84 168.128 1349.7 175.329 1339.71 184.473C1324.08 198.763 1305.02 209.684 1287.67 221.612C1263 238.573 1237.8 255.788 1215.98 276.107C1200.94 290.113 1190.26 303.607 1187.02 324.611C1184.71 339.586 1185.25 354.846 1183.86 369.913C1181.21 398.537 1172.15 426.944 1156.11 450.688C1143.36 469.504 1128.19 486.611 1112.51 502.919C1092.04 524.003 1074.24 546.791 1059.4 570.921C1038.87 604.277 1010.03 665.806 961.679 649.523C908.347 631.555 858.365 585.902 824.152 541.668C812.662 526.816 803.231 508.602 787.735 497.649C764.535 481.279 741 481.854 713.408 481.921C672.099 482.014 582.208 491.127 581.24 428.24C580.858 403.325 591.467 379.767 596.547 355.801C602.277 328.961 590.797 310.858 575.897 289.324Z" stroke="#F1B170" stroke-width="0.738542" stroke-miterlimit="10" shape-rendering="crispEdges"/>
</g>
<g filter="url(#filter8_d_295_5122)">
<path d="M592.144 292.141C570.573 250.959 522.199 183.288 558.992 137.494C578.425 113.293 612.792 104.198 641.631 98.7797C664.831 94.3954 692.819 92.7495 710.351 74.165C723.237 60.501 717.517 40.6127 722.451 23.5118C728.578 2.30731 742.643 -15.0433 759.926 -28.0846C808.226 -64.5317 875.376 -75.7163 933.475 -78.0966C993.814 -80.5626 1060.3 -69.0266 1117.08 -46.8355C1187.88 -19.157 1240.91 33.257 1278 99.6239C1284.86 111.878 1291.08 124.45 1297.65 136.846C1302.06 145.164 1308.61 153.21 1312.09 161.96C1317.88 176.548 1311.06 188.474 1300.11 197.981C1284.37 211.669 1265.04 221.412 1247.09 231.684C1222.55 245.743 1197.46 259.547 1174.64 276.041C1159.3 287.14 1143.24 299.096 1137.75 318.352C1134 331.486 1133.23 345.395 1133.36 358.998C1133.65 388.163 1132.14 411.747 1118.75 438.458C1096.7 482.31 1062.8 521.741 1026.99 554.552C998.893 580.3 954.417 620.299 913.468 603.084C876.727 587.669 855.236 550.772 831.03 520.941C819.261 506.439 806.04 493.194 790.506 482.879C770.921 469.875 752.484 464.419 729.28 462.291C690.226 458.711 631.338 457.778 619.265 410.173C614.808 392.606 617.352 374.411 615.014 356.616C611.959 333.09 603.026 312.914 592.144 292.141Z" stroke="#5BE7C3" stroke-width="0.738542" stroke-miterlimit="10" shape-rendering="crispEdges"/>
</g>
<g filter="url(#filter9_d_295_5122)">
<path d="M614.572 293.666C599.212 248.604 579.033 191.815 616.132 151.766C634.102 132.368 659.379 121.519 683.842 113.415C701.363 107.606 729.182 105.896 739.924 88.0386C747.814 74.8966 748.906 56.7676 756.043 42.6873C765.434 24.2556 779.845 7.8949 798.137 -5.10181C843.544 -37.6259 902.685 -50.1942 956.619 -53.7925C1073.81 -61.6011 1193.05 0.5896 1255.76 102.909C1274.46 133.411 1298.6 165.873 1268.38 197.034C1235.39 231.027 1185.69 246.952 1146.31 271.107C1131.27 280.329 1112.1 291.415 1103.7 308.112C1098.66 318.149 1098.3 330.741 1098.08 341.791C1097.47 369.932 1095.17 395.242 1084.04 421.5C1066.84 462.08 1039.41 499.518 1008.34 530.184C981.228 556.928 942.575 588.35 903.213 569.076C873.033 554.261 853.891 522.817 830.441 499.64C804.341 473.826 772.071 456.43 736.629 447.93C702.152 439.688 664.337 434.122 646.167 399.086C639.934 387.068 633.422 371.505 631.086 358.207C627.348 336.408 621.831 314.846 614.573 293.671L614.572 293.666Z" stroke="#FF8062" stroke-width="0.738542" stroke-miterlimit="10" shape-rendering="crispEdges"/>
</g>
<g filter="url(#filter10_d_295_5122)">
<path d="M639.581 293.983C632.475 248.481 631.681 201.035 664.701 165.172C680.11 148.438 699.588 136.555 719.284 125.786C733.776 117.862 748.741 111.178 759.564 98.1877C769.591 86.1596 777.214 72.1934 786.895 59.8507C799.18 43.9419 814.46 29.7825 832.149 17.9153C875.271 -10.6524 927.729 -24.0134 977.915 -28.6483C1002.21 -30.9012 1028.56 -32.0734 1052.69 -25.9324C1075.99 -20.0079 1099.04 -10.6399 1120.47 0.284119C1166.02 23.4818 1205.5 57.4554 1234.12 100.409C1253.74 129.872 1264.35 158.522 1238.94 188.411C1210.29 222.1 1165.37 240.689 1128.35 262.555C1102.95 277.552 1074.49 292.252 1069.75 324.121C1065.97 349.479 1062.9 373.548 1053.13 397.518C1038.59 432.872 1017.2 464.9 990.245 491.699C965.592 516.113 934.405 536.831 899.145 523.791C871.207 513.441 849.53 490.255 825.12 473.679C797.92 455.165 768.028 444.956 736.555 436.749C708.27 429.339 681.638 417.963 663.355 393.802C659.364 388.751 655.834 383.457 652.797 377.964C649.116 370.917 649.397 363.931 648.679 356.031C646.797 335.184 642.797 314.577 639.581 293.983Z" stroke="#F1B170" stroke-width="0.738542" stroke-miterlimit="10" shape-rendering="crispEdges"/>
</g>
<g filter="url(#filter11_d_295_5122)">
<path d="M667.158 290.265C667.765 247.044 677.999 206.195 706.011 172.514C717.989 158.105 732.291 146.237 745.471 133.034C756.083 122.389 766.112 112.499 778.314 103.727C807.259 82.9574 830.784 56.0815 861.544 37.5861C902.607 12.8589 949.644 -0.806671 996.315 -6.27078C1019.11 -8.9408 1042.65 -9.87497 1065.7 -6.85776C1085.5 -4.26764 1104.47 4.82477 1122.07 14.1278C1156.55 32.351 1190.03 58.2536 1212.42 91.0183C1261.78 163.261 1164.46 215.784 1114.51 246.541C1091.54 260.69 1056.43 277.077 1047.03 305.103C1040.3 325.125 1036.2 345.483 1027.54 364.89C1004.27 417 957.031 478.291 894.083 470.131C867.147 466.645 842.597 452.48 817.452 442.976C791.56 433.185 764.837 427.727 737.925 421.736C712.774 416.142 692.725 408.18 676.483 386.836C668.719 376.643 669.405 364.44 668.712 351.936C667.583 331.396 666.885 310.737 667.158 290.265Z" stroke="#5BE7C3" stroke-width="0.738542" stroke-miterlimit="10" shape-rendering="crispEdges"/>
</g>
<g filter="url(#filter12_d_295_5122)">
<path d="M692.267 284.728C702.38 219.491 739.939 148.271 795.167 110.384C860.129 65.8168 930.507 28.2882 1008.12 17.4999C1044.11 12.497 1083.52 10.036 1117.48 26.395C1143.32 38.8368 1173.34 57.4346 1187.56 83.592C1222.35 147.561 1144.96 198.486 1100.87 228.087C1077.13 244.019 1046.91 259.546 1029.02 282.813C1018.64 296.3 1013.34 314.149 1004.96 328.965C979.56 373.865 937.76 410.08 885.677 416.556C861.598 419.548 837.343 415.847 813.446 412.905C788.984 409.894 764.218 408.26 739.908 404.059C720.508 400.704 697.633 395.023 690.486 373.921C681.473 347.325 688.14 311.369 692.267 284.728Z" stroke="#5ACEF2" stroke-width="0.738542" stroke-miterlimit="10" shape-rendering="crispEdges"/>
</g>
<g filter="url(#filter13_d_295_5122)">
<path d="M716.891 274.249C731.64 212.915 762.872 153.087 815.376 116.471C843.219 97.0561 875.54 83.6527 906.576 70.4108C941.746 55.403 978.499 43.7538 1016.03 37.975C1062.77 30.7766 1138.46 24.2885 1162.88 78.3992C1187.11 132.109 1125.87 179.645 1089.65 206.735C1066.44 224.087 1041.59 240.016 1019.4 258.987C1007.37 269.272 998.099 281.156 987.924 293.219C959.793 326.643 919.683 353.103 878.799 367.228C839.178 380.921 790.161 386.983 748.336 382.458C730.289 380.514 717.39 373.948 711.932 355.299C704.369 329.359 710.799 299.584 716.891 274.249Z" stroke="#F1B170" stroke-width="0.738542" stroke-miterlimit="10" shape-rendering="crispEdges"/>
</g>
<g filter="url(#filter14_d_295_5122)">
<path d="M741.357 257.729C756.009 203.726 787.612 154.403 833.71 121.991C885.383 85.6573 951.92 65.4685 1013.08 55.2014C1045.58 49.7456 1116.03 34.9634 1132.6 77.2784C1149.17 119.593 1101.27 161.294 1073.7 184.25C1040.24 212.069 1004.16 238.929 968.131 263.889C936.825 285.591 903.42 307.778 869.511 324.537C850.667 333.935 830.72 341.707 809.981 347.733C794.813 352.086 775.526 358.578 759.624 355.338C719.515 347.155 734.349 283.55 741.357 257.729Z" stroke="#FF8062" stroke-width="0.738542" stroke-miterlimit="10" shape-rendering="crispEdges"/>
</g>
<g filter="url(#filter15_d_295_5122)">
<path d="M771.559 241.558C803.707 139.433 905.559 89.2066 1003.63 71.6995C1026.42 67.6358 1090.3 52.9843 1103.04 84.1805C1115.38 114.427 1076.13 150.298 1057.75 167.293C1000.8 219.956 930.437 259.004 863.763 297.686C842.952 309.758 805.417 335.962 779.602 323.875C751.573 310.728 764.899 262.734 771.559 241.558Z" stroke="#5ACEF2" stroke-width="0.738542" stroke-miterlimit="10" shape-rendering="crispEdges"/>
</g>
<g filter="url(#filter16_d_295_5122)">
<path d="M804.487 221.901C832.444 146.694 913.761 103.559 988.524 89.34C1006.84 85.8607 1053.34 75.0274 1067.21 96.0146C1080.05 115.428 1049.41 143.56 1037.96 154.739C1012.45 179.632 982.213 200.137 952.345 219.845C924.728 238.078 896.813 256.773 867.754 272.196C852.454 280.314 823.742 297.637 806.354 285.1C787.623 271.617 798.279 238.601 804.487 221.901Z" stroke="#5ACEF2" stroke-width="0.738542" stroke-miterlimit="10" shape-rendering="crispEdges"/>
</g>
<g filter="url(#filter17_d_295_5122)">
<path d="M840.774 199.93C862.083 150.815 919.153 118.922 969.497 108.325C983.043 105.479 1012.32 98.0976 1023.75 111.214C1034.27 123.293 1017.31 141.001 1009.79 149.179C976.437 185.43 927.597 217.81 882.849 237.698C871.597 242.697 851.374 252.511 839.797 242.419C827.928 232.056 835.879 211.205 840.774 199.93Z" stroke="#5BE7C3" stroke-width="0.738542" stroke-miterlimit="10" shape-rendering="crispEdges"/>
</g>
<g filter="url(#filter18_d_295_5122)">
<path d="M879.268 179.298C891.275 154.91 922.658 136.51 948.653 130.657C966.953 126.538 988.939 130.096 972.995 151.324C957.156 172.388 927.767 191.629 902.857 200.159C883.852 206.665 868.957 200.246 879.268 179.298Z" stroke="#F1B170" stroke-width="0.738542" stroke-miterlimit="10" shape-rendering="crispEdges"/>
</g>
<g filter="url(#filter19_d_295_5122)">
<path d="M-94.4332 348.211C-95.2032 300.03 -120.398 249.955 -107.955 200.861C-97.7372 160.54 -46.2982 157.174 -15.4392 138.906C9.08279 124.392 22.9998 98.6837 36.2608 74.0165C48.1758 51.8704 58.8788 29.0582 71.4308 7.27747C79.5568 -6.80365 93.5088 -34.4555 111.131 -34.9542C128.001 -35.4355 143.469 -13.8904 153.269 -1.15222C166.046 15.4507 177.369 33.1494 189.779 50.0196C210.687 78.4724 235.773 99.5329 264.498 119.465C297.186 142.145 330.413 164.051 364.181 185.181C389.043 200.785 414.074 216.272 437.972 233.418C452.962 244.177 486.047 264.363 486.199 284.197C486.271 293.661 477.448 304.142 471.499 311.706C461.433 324.512 449.96 336.22 438.451 347.673C417.015 369.011 394.67 389.385 372.567 409.998C343.879 436.755 316.476 463.075 291.257 493.451C265.182 524.893 240.272 557.372 214.857 589.407C197.638 611.11 180.441 635.481 155.61 648.802C124.51 665.448 98.9798 647.895 67.5268 647.692C40.4698 647.513 42.4648 583.789 39.0268 566.07C35.5768 548.135 27.9728 531.436 25.0268 513.462C21.3518 491.021 21.3038 468.061 20.3998 445.379C19.2998 417.636 18.8658 391.224 -10.3072 380.644C-26.9072 374.633 -44.8712 373.369 -62.0562 369.769C-73.1912 367.428 -94.1902 363.433 -94.4332 348.211Z" stroke="#FF8062" stroke-width="0.738542" stroke-miterlimit="10" shape-rendering="crispEdges"/>
</g>
<g filter="url(#filter20_d_295_5122)">
<path d="M-81.1342 339.64C-83.9702 299.252 -100.726 247.559 -84.8812 205.867C-71.3442 170.241 -29.0041 165.621 -0.50412 146.906C23.0289 131.469 33.5049 106.209 45.2679 81.3932C54.7049 61.4867 63.8579 41.3878 74.5679 22.1148C82.4629 7.91296 94.5179 -16.0623 110.933 -19.0021C125.69 -21.6447 141.517 -0.478455 149.8 10.2899C161.885 26.0104 172.222 43.0829 182.9 59.7974C201.66 89.1577 220.869 115.56 248.325 137.128C275.903 158.789 306.073 174.985 336.566 191.841C360.424 205.034 384.157 218.605 406.822 233.832C423.705 245.172 447.979 259.679 455.704 279.894C461.82 295.886 430.804 322.425 421.659 331.792C402.833 351.051 382.883 369.13 362.896 387.098C338.531 408.994 313.389 428.143 291.872 453.12C253.387 497.771 221.218 553.38 171.696 586.568C141.831 606.587 108.596 611.705 75.3739 608.71C62.2199 607.524 59.0619 588.645 57.4039 577.64C54.6469 559.351 54.3039 540.746 52.1809 522.383C50.1949 505.193 45.7859 488.862 42.2329 472.005C38.6329 454.926 37.6329 437.427 34.9819 420.231C33.3419 409.555 31.7209 397.132 24.5489 388.55C17.1279 379.665 4.88486 375.941 -5.81613 373.113C-25.9121 367.851 -79.1301 368.141 -81.1342 339.64Z" stroke="#5BE7C3" stroke-width="0.738542" stroke-miterlimit="10" shape-rendering="crispEdges"/>
</g>
<g filter="url(#filter21_d_295_5122)">
<path d="M-64.0145 322.733C-68.7845 285.66 -75.4615 239.485 -56.0305 205.328C-40.1475 177.4 -6.2735 171.376 17.9215 153.178C38.0455 138.046 45.6465 113.978 55.6355 91.612C63.8355 73.2665 72.0715 54.8411 82.0055 37.3839C89.5395 24.1462 99.2495 6.1936 114.206 1.57458C126.996 -2.37177 141.445 15.3077 148.536 24.107C160.609 39.1039 170.452 55.9109 180.229 72.4897C196.221 99.6221 210.937 128.604 233.698 150.675C255.815 172.091 282.088 184.732 308.853 198.947C329.353 209.837 349.727 221.146 369.042 234.133C383.877 244.097 402.257 255.906 409.986 272.488C416.67 286.788 399.511 303.715 390.938 313.804C376.781 330.455 361.068 345.728 345.574 361.064C328.853 377.609 310.333 392.868 294.152 409.823C260.126 445.497 232.942 484.993 191.005 512.323C163.844 530.027 127.296 546.109 95.1955 543.217C72.1065 541.136 73.6255 489.198 71.4075 472.604C67.7615 445.472 60.7195 416.963 49.5335 391.971C39.9275 370.555 17.0995 363.95 -3.89951 359.146C-17.0545 356.13 -30.8405 354.503 -43.5645 349.84C-58.2965 344.44 -62.0155 338.273 -64.0145 322.733Z" stroke="#5ACEF2" stroke-width="0.738542" stroke-miterlimit="10" shape-rendering="crispEdges"/>
</g>
<g filter="url(#filter22_d_295_5122)">
<path d="M-48.043 305.353C-50.883 274.01 -50.243 236.946 -31.849 209.832C-15.728 186.084 12.976 179.831 33.39 161.123C49.323 146.527 55.58 122.729 64.149 103.426C74.621 79.8253 89.295 36.2382 115.712 27.3556C140.286 19.0991 165.985 71.8411 174.882 87.569C188.966 112.463 200.745 139.761 217.828 162.749C232.538 182.54 252.248 193.481 273.167 205.238C299.839 220.255 340.334 238.061 354.598 267.326C365.228 289.132 330.662 321.552 318.859 336.662C306.514 352.445 297.216 371.153 284.476 386.38C264.376 410.407 231.794 429.756 204.897 444.515C178.744 458.878 144.786 474.77 115.122 473.824C95.622 473.205 91.916 442.603 87.757 427.656C81.797 406.405 73.874 387.36 56.857 372.91C39.532 358.197 19.111 351.263 -2.35599 345.196C-13.375 342.104 -25.945 339.692 -35.803 333.446C-46.702 326.648 -46.948 317.403 -48.043 305.353Z" stroke="#F1B170" stroke-width="0.738542" stroke-miterlimit="10" shape-rendering="crispEdges"/>
</g>
<g filter="url(#filter23_d_295_5122)">
<path d="M-28.5844 287.289C-28.4263 260.211 -22.3353 231.335 -4.27133 210.448C10.7737 193.047 34.3227 187.234 48.7287 169.448C60.1367 155.367 65.9436 135.6 73.5807 119.245C82.9216 99.2065 96.1297 64.2014 119.357 57.247C142.027 50.4774 162.078 89.0334 170.771 104.287C183.5 126.664 193.8 150.377 206.645 172.685C216.707 190.188 229.012 201.468 245.4 212.749C264.633 225.999 291.467 240.676 301.742 262.598C309.149 278.47 291.219 303.831 284.709 317.813C280.345 327.205 276.35 336.743 274.156 346.923C272.447 354.85 272.277 362.185 267.325 368.992C254.852 386.113 227.515 388.347 208.966 393.99C184.332 401.483 158.195 409.991 132.415 411.616C116.57 412.631 108.484 397.795 99.4397 387.355C88.7537 375.015 73.6237 366.141 60.4097 356.83C42.9707 344.521 23.9927 336.866 4.35867 329.022C-4.49731 325.484 -14.8983 322.013 -21.7603 314.978C-28.9233 307.69 -28.6383 297.062 -28.5844 287.289Z" stroke="#FF8062" stroke-width="0.738542" stroke-miterlimit="10" shape-rendering="crispEdges"/>
</g>
<g filter="url(#filter24_d_295_5122)">
<path d="M-8.15012 271.214C-5.0191 248.472 4.73785 226.735 21.2178 210.658C33.8508 198.316 50.6279 191.366 60.7669 176.536C70.2139 162.715 76.7979 146.992 84.6009 132.212C92.8589 116.585 105.128 90.4671 124.174 86.2152C144.701 81.6361 160.513 107.983 169.274 122.584C180.33 141.037 188.734 160.894 198.624 179.979C205.831 193.872 215.322 206.864 226.824 218.583C238.61 230.562 254.598 242.034 260.563 258.507C265.836 273.096 255.97 290.747 254.228 305.541C252.365 321.346 255.628 337.947 245.298 351.519C224.006 379.506 170.555 374.316 139.998 374.915C109.848 375.532 85.6068 358.406 61.2088 342.112C45.0928 331.355 28.3089 322.245 11.7879 312.223C-5.05615 301.998 -10.9021 291.228 -8.15012 271.214Z" stroke="#5ACEF2" stroke-width="0.738542" stroke-miterlimit="10" shape-rendering="crispEdges"/>
</g>
<g filter="url(#filter25_d_295_5122)">
<path d="M10.8374 258.197C20.0964 225.25 49.0144 207.738 69.6874 182.84C86.6024 162.456 99.2874 120.244 127.772 114.66C160.114 108.323 179.472 164.254 190.72 185.835C203.198 209.771 225.42 229.239 234.658 254.577C239.514 267.877 235.343 280.282 232.757 293.577C229.922 308.173 227.79 323.096 217.998 334.844C198.739 357.96 161.115 357.804 134.018 358.44C105.968 359.101 81.1554 343.257 58.8064 327.444C35.1044 310.7 1.35336 291.984 10.8374 258.197Z" stroke="#5ACEF2" stroke-width="0.738542" stroke-miterlimit="10" shape-rendering="crispEdges"/>
</g>
<g filter="url(#filter26_d_295_5122)">
<path d="M26.3436 249.263C36.7766 225.789 58.7006 206.705 76.4906 188.69C91.3386 173.672 107.313 143.437 129.952 141.283C156.56 138.741 172.687 171.025 183.152 190.82C193.452 210.272 208.305 230.811 214.011 252.16C219.961 274.399 204.111 304.351 189.005 320.088C172.155 337.637 144.58 344.121 120.92 343.421C96.1456 342.709 73.4196 328.206 54.6526 313.163C34.5976 297.082 14.2106 276.512 26.3436 249.263Z" stroke="#FF8062" stroke-width="0.738542" stroke-miterlimit="10" shape-rendering="crispEdges"/>
</g>
<g filter="url(#filter27_d_295_5122)">
<path d="M40.7365 244.844C50.7025 225.32 67.9765 208.804 83.9045 194.071C96.2045 182.699 114.333 163.359 132.067 162.889C151.576 162.366 168.11 178.599 175.867 195.238C183.511 211.646 191.567 232.222 192.712 250.224C195.2 289.434 144.6 333.353 106.6 329.779C70.5785 326.39 20.8665 283.744 40.7365 244.844Z" stroke="#5ACEF2" stroke-width="0.738542" stroke-miterlimit="10" shape-rendering="crispEdges"/>
</g>
<g filter="url(#filter28_d_295_5122)">
<path d="M54.042 242.69C67.79 217.253 101.185 180.988 132.099 180.126C167.589 179.142 176.499 219.501 171.872 248.744C167.173 278.593 126.258 321.797 93.635 315.959C61.799 310.263 37.749 272.859 54.042 242.69Z" stroke="#5BE7C3" stroke-width="0.738542" stroke-miterlimit="10" shape-rendering="crispEdges"/>
</g>
<g filter="url(#filter29_d_295_5122)">
<path d="M68.0935 238.578C79.7335 217.279 104.572 190.675 130.479 189.873C161.347 188.917 160.765 222.989 153.765 244.196C146.486 266.214 114.429 303.82 87.3995 297.882C61.1185 292.086 56.9385 258.991 68.0935 238.578Z" stroke="#FF8062" stroke-width="0.738542" stroke-miterlimit="10" shape-rendering="crispEdges"/>
</g>
<g filter="url(#filter30_d_295_5122)">
<path d="M80.331 236.126C88.014 220.929 107.244 201.72 125.524 201.106C147.868 200.367 143.524 227.391 137.752 240.435C130.89 255.956 107.889 282.924 88.586 278.553C69.582 274.251 73.992 248.648 80.331 236.126Z" stroke="#5ACEF2" stroke-width="0.738542" stroke-miterlimit="10" shape-rendering="crispEdges"/>
</g>
<g filter="url(#filter31_d_295_5122)">
<path d="M1131.44 1104.47C1081.98 1134.96 1026.07 1160.13 973.346 1185.71C896.297 1223.09 818.117 1259.46 737.16 1287.31C693.76 1302.24 637.512 1323.76 590.939 1312.06C573.911 1307.79 558.383 1294.86 543.115 1286.46C522.062 1274.88 500.697 1263.87 479.374 1252.84C436.595 1230.72 393.682 1208.83 351.638 1185.29C331.393 1173.96 311.749 1159.68 290.672 1150.01C278.355 1144.35 263.616 1147 250.455 1147.36C219.969 1148.19 189.501 1149.77 159.033 1151.11C121.766 1152.75 84.4143 1154.5 47.1053 1153.85C30.2773 1153.55 -10.9346 1156.59 -20.1946 1141.86C-25.1786 1133.93 -13.4316 1119.63 -7.98669 1113.01C2.01331 1100.85 13.5034 1089.89 24.8424 1079.04C51.0674 1053.95 78.9183 1030.06 102.229 1002.04C114.206 987.632 129.898 970.026 122.08 950.359C114.188 930.494 100.517 913.292 92.1804 893.495C82.5804 870.712 78.5944 847.004 74.0603 822.847C70.7032 804.993 62.8843 789.173 55.5333 772.712C47.4114 754.518 38.9974 736.17 33.3574 716.983C29.6304 704.309 23.6144 681.509 36.6573 673.484C55.1843 662.078 89.9264 671.313 111.045 674.675C140.232 679.313 169.207 685.221 198.315 690.31C219.446 694.01 240.651 698.068 262.134 698.499C296.766 699.196 331.514 696.785 366.055 694.54C430.004 690.383 493.505 684.746 557.679 684.746C613.903 684.746 743.832 750.843 774.245 762.48C834.95 785.709 897.27 807.737 954.716 838.648C970.257 847.017 994.174 858.167 1002.35 875.393C1007.4 886.007 1005.08 892.143 1016.98 898.984C1033.21 908.315 1054.01 911.978 1071.98 916.154C1100.91 922.876 1130.08 928.569 1159.15 934.656C1217.95 946.935 1276.35 960.824 1334.9 974.189C1352.6 978.225 1374.02 979.122 1390.9 986.239C1401.78 990.809 1400.65 996.563 1392.23 1003.51C1377.46 1015.69 1356.76 1022.46 1339.31 1029.41C1313.75 1039.59 1287.76 1048.68 1261.77 1057.64C1235.78 1066.59 1209.65 1075.27 1183.64 1084.24C1166.46 1090.15 1146.87 1094.95 1131.44 1104.47Z" stroke="#FF8062" stroke-width="0.738542" stroke-miterlimit="10" shape-rendering="crispEdges"/>
</g>
<g filter="url(#filter32_d_295_5122)">
<path d="M1090.74 1097.76C1038.42 1128.32 980.351 1152.66 924.369 1176.4C852.721 1206.82 779.453 1235.32 703.962 1254.33C659.638 1265.49 607.341 1277.8 562.051 1265.01C545.894 1260.45 533.823 1250.19 519.973 1241.13C504.186 1230.8 487.797 1221.33 471.397 1212.01C437.649 1192.83 403.546 1174.3 369.087 1156.42C350.835 1146.92 330.743 1134.19 310.123 1130.89C293.729 1128.27 275.107 1132.06 258.64 1133.17C228.985 1135.16 199.34 1137.21 169.669 1138.95C135.436 1140.96 101.106 1142.81 66.7996 1142.49C47.6796 1142.31 14.8556 1145.27 1.33362 1132.71C-10.4664 1121.76 32.4886 1082.13 40.0416 1074.6C63.6306 1051.09 88.4417 1028.71 110.396 1003.57C123.371 988.754 139.17 970.722 144.641 951.075C149.298 934.332 140.312 915.254 135.005 899.775C128.369 880.388 123.013 860.291 115.305 841.311C108.438 824.401 97.5046 809.341 87.9047 793.964C77.3456 777.054 66.6536 759.865 58.8146 741.417C54.0145 730.065 46.0636 711.054 55.6086 700.234C66.6346 687.758 100.625 695.911 114.597 697.69C142.94 701.347 171.065 706.782 199.214 711.648C245.967 719.724 290.54 726.792 338.15 725.1C400.15 722.888 462.088 717.69 524.076 714.81C546.967 713.735 570.222 711.574 593.131 712.741C606.264 713.415 616.265 717.487 623.903 726.687C634.334 739.237 658.361 746.186 675.07 753.387C701.124 764.609 727.506 775.047 753.816 785.62C811.571 808.843 870.438 831.225 925.216 861.26C942.545 870.759 962.388 881.352 975.205 897.045C982.358 905.797 980.554 914.228 984.92 923.529C990.7 935.768 1009.7 941.286 1021.07 945.288C1042.99 953.021 1065.81 958.203 1088.47 963.058C1139.71 974.039 1191.08 981.259 1243.16 986.577C1255.36 987.812 1303.42 992.092 1278.18 1012.72C1250.29 1035.52 1210.02 1046.69 1177.19 1059.53C1147.61 1071.09 1118.01 1081.83 1090.74 1097.76Z" stroke="#5BE7C3" stroke-width="0.738542" stroke-miterlimit="10" shape-rendering="crispEdges"/>
</g>
<g filter="url(#filter33_d_295_5122)">
<path d="M1018.44 1092.11C969.265 1118.99 914.791 1139.04 861.83 1158.23C797.564 1181.51 731.686 1202.26 664.283 1213.88C621.941 1221.18 575.259 1226.78 533.198 1214.66C504.478 1206.38 482.261 1184.01 457.036 1168.62C431.811 1153.22 405.564 1138.78 378.536 1126.73C361.76 1119.26 343.713 1111.73 325.046 1112.72C279.659 1115.11 234.326 1120.82 188.891 1123.58C158.833 1125.43 128.715 1126.96 98.5662 1126.5C80.3861 1126.23 55.4102 1127.34 39.3142 1117.62C21.5232 1106.87 116.254 1015.1 125.207 1004.77C147.654 978.871 174.837 944.499 170.497 907.666C166.346 872.455 148.354 846.167 128.003 818.582C116.454 802.888 79.4192 760.962 93.1442 740.551C100.985 728.884 126.83 732.923 139.109 733.718C163.309 735.284 187.371 738.651 211.442 741.574C246.542 745.81 282.601 752.353 317.85 754.271C342.394 755.603 367.085 753.82 391.672 753.784C426.927 753.734 462.181 754.006 497.436 754.326C527.036 754.598 556.889 754.326 586.387 757.212C604.725 758.988 618.645 762.978 631.798 774.25C643.244 784.056 660.512 789.796 675.098 796.03C699.198 806.322 723.603 815.862 747.935 825.555C798.878 845.856 850.404 865.731 899.165 891.1C921.424 902.672 958.848 918.88 964.065 946.944C965.949 957.063 967.335 961.436 977.065 967.189C990.865 975.353 1007.4 979.034 1022.89 982.235C1058.99 989.696 1096.15 988.58 1132.19 995.955C1146.87 998.996 1166.04 1005.56 1149.28 1020.58C1129.72 1038.15 1101.26 1047.8 1077.83 1058.66C1066.14 1064.07 1054.09 1069.14 1042.99 1075.75C1034.46 1080.84 1027.16 1087.37 1018.44 1092.11Z" stroke="#5ACEF2" stroke-width="0.738542" stroke-miterlimit="10" shape-rendering="crispEdges"/>
</g>
<g filter="url(#filter34_d_295_5122)">
<path d="M925.3 1083.72C879.869 1105.55 830.53 1121.42 782.077 1135.73C728.264 1151.61 673.147 1164.75 617.3 1170.35C578.739 1174.22 537.654 1175.37 500.227 1163.51C476.559 1156 460.513 1140.22 440.146 1126.99C409.408 1106.99 376.146 1091.14 339.222 1094.99C297.822 1099.31 256.285 1102.54 214.612 1104.7C189.475 1106.01 164.241 1106.99 139.074 1106.08C123.162 1105.51 102.661 1104.55 88.819 1097.22C70.2971 1087.41 139.869 1012.77 148.542 1001.89C170.05 974.91 185.816 946.599 195.029 913.171C202.542 885.893 187.194 864.45 171.361 844.046C161.517 831.374 129.711 799.504 139.67 783.049C145.132 773.974 163.132 774.445 172.799 773.981C191.224 773.103 209.727 774.018 228.152 774.42C255.358 775.037 284.318 770.791 311.294 774.21C371.077 781.775 430.709 788.328 490.863 793.514C524.023 796.369 557.383 798.965 590.245 804.473C602.045 806.451 614.229 808.546 625.407 813.021C632.598 815.895 636.519 820.791 642.588 824.809C671.524 843.934 709.296 853.774 741.888 866.031C785.213 882.326 828.768 898.366 870.94 917.614C893.121 927.738 924.102 939.372 939.365 960.036C943.977 966.28 942.011 971.276 944.912 977.276C948.25 984.199 958.391 986.268 964.939 988.192C979.801 992.574 1042.01 999.201 1013.34 1024.91C999.66 1037.15 982.231 1045.01 966.81 1054.63C961.227 1058.12 955.783 1061.62 951.128 1066.33C943.347 1074.22 935.676 1078.72 925.3 1083.72Z" stroke="#F1B170" stroke-width="0.738542" stroke-miterlimit="10" shape-rendering="crispEdges"/>
</g>
<g filter="url(#filter35_d_295_5122)">
<path d="M826.064 1074.27C736.378 1109.59 631.269 1133.65 533.489 1128.99C500.973 1127.43 465.987 1122.24 437.797 1104.47C421.177 1093.97 407.897 1082.12 387.931 1078.33C373.518 1075.59 357.999 1078.7 343.501 1079.82C322.501 1081.45 301.492 1082.91 280.463 1084.09C254.393 1085.53 228.237 1086.64 202.118 1086.05C183.455 1085.62 157.682 1086.1 141.47 1075.91C122.113 1063.76 171.384 1006.75 178.316 996.593C195.116 971.973 206.898 948.119 211.155 918.447C212.408 909.802 216.628 900.941 216.081 892.227C215.509 883.329 210.115 875.41 205.135 868.41C198.622 859.241 176.024 837.491 182.494 826.309C186.07 820.133 199.494 819.355 206.448 818.046C219.498 815.576 232.737 814.249 245.867 812.285C268.143 808.938 290.26 798.039 312.615 798.348C372.728 799.163 433.715 818.108 492.62 828.513C527.642 834.719 562.901 840.35 597.497 848.755C608.443 851.419 619.718 854.167 630.123 858.685C637.384 861.835 642.048 867.448 648.774 870.974C674.565 884.515 704.223 892.735 731.917 901.849C767.873 913.708 803.947 925.205 839.65 937.829C862.029 945.738 890.806 952.698 910.089 967.37C924.173 978.084 914.547 981.289 907.115 991.265C903.321 996.358 904.197 1001.37 902.548 1007.13C900.195 1015.36 893.542 1021.28 887.302 1026.6C878.702 1033.96 867.234 1040.01 860.202 1049.03C857.721 1052.2 857.836 1056.14 855.83 1058.91C849.988 1066.97 834.497 1070.94 826.064 1074.27Z" stroke="#FF8062" stroke-width="0.738542" stroke-miterlimit="10" shape-rendering="crispEdges"/>
</g>
<g filter="url(#filter36_d_295_5122)">
<path d="M730.711 1061.68C657.921 1083.89 576.929 1096.53 499.986 1090.67C473.215 1088.62 446.281 1083.87 421.344 1073.44C409.999 1068.7 401.481 1063.43 389.049 1063.15C360.202 1062.49 331.265 1064.78 302.424 1065.33C281.785 1065.73 261.042 1065.87 240.451 1064.18C226.683 1063.06 208.065 1061.71 196.786 1053.13C180.396 1040.64 209.986 998.156 216.005 986.419C225.985 966.955 235.886 945.317 231.928 922.794C230.714 915.906 228.565 909.822 228.286 902.799C228.019 896.763 228.766 891.192 226.659 885.422C224.059 878.269 212.472 867.168 216.459 860.583C219.173 856.088 227.222 855.876 232.576 854.437C241.359 852.067 249.848 849 257.926 845.279C266.546 841.301 273.885 835.155 282.815 831.868C297.315 826.54 313.537 826.04 328.774 826.067C389.574 826.167 451.136 838.354 510.389 851.098C541.245 857.733 572.271 864.805 602.259 874.868C611.365 877.926 621.684 880.995 629.691 886.642C634.691 890.157 638.074 894.561 643.75 897.205C692.235 919.776 748.289 928.158 799.76 944.46C813.16 948.706 887.405 970.145 848.584 990.313C825 1002.57 800.084 1008.14 778.562 1024.91C772.006 1030 767.635 1034.22 765.074 1042C763.386 1047.17 767.448 1044.55 761.774 1049.96C754.899 1056.47 739.192 1059.09 730.711 1061.68Z" stroke="#F1B170" stroke-width="0.738542" stroke-miterlimit="10" shape-rendering="crispEdges"/>
</g>
<g filter="url(#filter37_d_295_5122)">
<path d="M655.024 1048.55C569.802 1066.68 479.553 1067.54 392.987 1051.47C371.164 1047.42 348.453 1048.39 326.362 1047.36C304.898 1046.37 266.738 1048.42 251.148 1031.65C239.848 1019.5 252.11 993.658 256.348 980.059C261.753 962.733 266.477 944.835 257.602 928.008C252.402 918.154 245.281 908.776 239.702 899.011C237.036 894.349 231.545 887.205 233.834 882.788C237.62 875.501 255.334 872.434 263.934 868.997C291.406 858.016 320.497 855.213 349.867 855.292C404.116 855.435 458.646 862.974 511.86 873.198C536.343 877.903 561.167 882.923 584.779 891.102C598.14 895.727 607.996 904.652 620.755 909.943C661.838 926.991 705.976 936.1 747.765 951.689C759.865 956.204 805.04 971.232 782.28 988.951C760.248 1006.11 728.107 1004.07 705.197 1020.21C702.604 1022.05 699.397 1024.27 697.897 1027.25C697.008 1029.04 698.573 1032.44 697.897 1033.45C690.853 1044.5 665.841 1046.25 655.024 1048.55Z" stroke="#5ACEF2" stroke-width="0.738542" stroke-miterlimit="10" shape-rendering="crispEdges"/>
</g>
<g filter="url(#filter38_d_295_5122)">
<path d="M599.812 1036.57C556.091 1042.66 511.412 1044.17 466.952 1044.56C442.652 1044.77 415.952 1046.35 392.175 1040.09C377.824 1036.17 363.209 1032.95 348.406 1030.45C332.206 1027.83 306.122 1025.93 296.256 1011.77C288.886 1001.19 293.937 979.431 294.205 966.56C294.491 952.447 291.643 941.982 281.839 931.881C275.674 925.521 247.393 902.435 250.661 895.779C253.771 889.438 273.477 888.466 281.997 886.818C308.927 881.591 336.216 879.771 363.608 880.056C406.256 880.628 448.727 884.776 490.376 892.437C507.642 895.577 525.485 898.828 541.976 905.101C553.083 909.331 562.345 916.83 573.376 921.202C604.976 933.741 638.39 942.258 670.099 955.027C680.273 959.134 713.429 970.063 705.481 986.906C698.853 1000.97 676.311 1005.25 665.235 1014.67C646.393 1030.75 623.839 1033.23 599.812 1036.57Z" stroke="#5ACEF2" stroke-width="0.738542" stroke-miterlimit="10" shape-rendering="crispEdges"/>
</g>
<g filter="url(#filter39_d_295_5122)">
<path d="M572.269 1028.49C537.349 1032.43 502.148 1034.39 466.908 1034.37C444.199 1034.43 420.237 1034.74 397.95 1029.56C386.75 1026.95 377.027 1020.87 366.432 1016.52C355.522 1012.06 340.466 1007.07 335.75 996.833C331.319 987.21 332.974 973.172 329.083 961.569C325.622 951.274 318.383 944.918 310.583 937.957C305.613 933.509 280.089 914.258 283.041 910.008C286.205 905.456 301.534 905.827 309.51 905.197C331.465 903.434 353.534 902.871 375.577 903.513C405.653 904.45 435.958 907.065 465.513 912.987C486.479 917.182 502.292 927.174 521.84 934.502C547.158 944.02 573.39 951.545 598.472 961.958C610.972 967.146 629.472 973.819 635.872 987.211C638.33 992.342 640.718 1005.4 637.978 1010.53C634.687 1016.7 622.437 1019.31 616.655 1020.9C602.169 1024.85 587.01 1026.77 572.269 1028.49Z" stroke="#FF8062" stroke-width="0.738542" stroke-miterlimit="10" shape-rendering="crispEdges"/>
</g>
</g>
<rect opacity="0.75" x="54" y="231" width="780" height="528" rx="20" fill="#41495F"/>
</g>
<defs>
<filter id="filter0_d_295_5122" x="0" y="0" width="1480" height="940" filterUnits="userSpaceOnUse" color-interpolation-filters="sRGB">
<feFlood flood-opacity="0" result="BackgroundImageFix"/>
<feColorMatrix in="SourceAlpha" type="matrix" values="0 0 0 0 0 0 0 0 0 0 0 0 0 0 0 0 0 0 127 0" result="hardAlpha"/>
<feOffset dy="10"/>
<feGaussianBlur stdDeviation="10"/>
<feComposite in2="hardAlpha" operator="out"/>
<feColorMatrix type="matrix" values="0 0 0 0 0.309804 0 0 0 0 0.372549 0 0 0 0 0.921569 0 0 0 1 0"/>
<feBlend mode="normal" in2="BackgroundImageFix" result="effect1_dropShadow_295_5122"/>
<feBlend mode="normal" in="SourceGraphic" in2="effect1_dropShadow_295_5122" result="shape"/>
</filter>
<filter id="filter1_d_295_5122" x="-131.77" y="-300.124" width="1744.44" height="1645.91" filterUnits="userSpaceOnUse" color-interpolation-filters="sRGB">
<feFlood flood-opacity="0" result="BackgroundImageFix"/>
<feColorMatrix in="SourceAlpha" type="matrix" values="0 0 0 0 0 0 0 0 0 0 0 0 0 0 0 0 0 0 127 0" result="hardAlpha"/>
<feOffset dy="10"/>
<feGaussianBlur stdDeviation="10"/>
<feComposite in2="hardAlpha" operator="out"/>
<feColorMatrix type="matrix" values="0 0 0 0 0.309804 0 0 0 0 0.372549 0 0 0 0 0.921569 0 0 0 0.5 0"/>
<feBlend mode="normal" in2="BackgroundImageFix" result="effect1_dropShadow_295_5122"/>
<feBlend mode="normal" in="SourceGraphic" in2="effect1_dropShadow_295_5122" result="shape"/>
</filter>
<filter id="filter2_d_295_5122" x="181.531" y="-290.124" width="1421.14" height="1246.72" filterUnits="userSpaceOnUse" color-interpolation-filters="sRGB">
<feFlood flood-opacity="0" result="BackgroundImageFix"/>
<feColorMatrix in="SourceAlpha" type="matrix" values="0 0 0 0 0 0 0 0 0 0 0 0 0 0 0 0 0 0 127 0" result="hardAlpha"/>
<feOffset dy="10"/>
<feGaussianBlur stdDeviation="5"/>
<feComposite in2="hardAlpha" operator="out"/>
<feColorMatrix type="matrix" values="0 0 0 0 0.270588 0 0 0 0 0.266667 0 0 0 0 0.862745 0 0 0 1 0"/>
<feBlend mode="normal" in2="BackgroundImageFix" result="effect1_dropShadow_295_5122"/>
<feBlend mode="normal" in="SourceGraphic" in2="effect1_dropShadow_295_5122" result="shape"/>
</filter>
<filter id="filter3_d_295_5122" x="238.227" y="-247.405" width="1317.64" height="1165.79" filterUnits="userSpaceOnUse" color-interpolation-filters="sRGB">
<feFlood flood-opacity="0" result="BackgroundImageFix"/>
<feColorMatrix in="SourceAlpha" type="matrix" values="0 0 0 0 0 0 0 0 0 0 0 0 0 0 0 0 0 0 127 0" result="hardAlpha"/>
<feOffset dy="10"/>
<feGaussianBlur stdDeviation="5"/>
<feComposite in2="hardAlpha" operator="out"/>
<feColorMatrix type="matrix" values="0 0 0 0 0.270588 0 0 0 0 0.266667 0 0 0 0 0.862745 0 0 0 1 0"/>
<feBlend mode="normal" in2="BackgroundImageFix" result="effect1_dropShadow_295_5122"/>
<feBlend mode="normal" in="SourceGraphic" in2="effect1_dropShadow_295_5122" result="shape"/>
</filter>
<filter id="filter4_d_295_5122" x="307.527" y="-214.435" width="1205.14" height="1067.62" filterUnits="userSpaceOnUse" color-interpolation-filters="sRGB">
<feFlood flood-opacity="0" result="BackgroundImageFix"/>
<feColorMatrix in="SourceAlpha" type="matrix" values="0 0 0 0 0 0 0 0 0 0 0 0 0 0 0 0 0 0 127 0" result="hardAlpha"/>
<feOffset dy="10"/>
<feGaussianBlur stdDeviation="5"/>
<feComposite in2="hardAlpha" operator="out"/>
<feColorMatrix type="matrix" values="0 0 0 0 0.270588 0 0 0 0 0.266667 0 0 0 0 0.862745 0 0 0 1 0"/>
<feBlend mode="normal" in2="BackgroundImageFix" result="effect1_dropShadow_295_5122"/>
<feBlend mode="normal" in="SourceGraphic" in2="effect1_dropShadow_295_5122" result="shape"/>
</filter>
<filter id="filter5_d_295_5122" x="363.332" y="-164.224" width="1089.93" height="963.455" filterUnits="userSpaceOnUse" color-interpolation-filters="sRGB">
<feFlood flood-opacity="0" result="BackgroundImageFix"/>
<feColorMatrix in="SourceAlpha" type="matrix" values="0 0 0 0 0 0 0 0 0 0 0 0 0 0 0 0 0 0 127 0" result="hardAlpha"/>
<feOffset dy="10"/>
<feGaussianBlur stdDeviation="5"/>
<feComposite in2="hardAlpha" operator="out"/>
<feColorMatrix type="matrix" values="0 0 0 0 0.270588 0 0 0 0 0.266667 0 0 0 0 0.862745 0 0 0 1 0"/>
<feBlend mode="normal" in2="BackgroundImageFix" result="effect1_dropShadow_295_5122"/>
<feBlend mode="normal" in="SourceGraphic" in2="effect1_dropShadow_295_5122" result="shape"/>
</filter>
<filter id="filter6_d_295_5122" x="422.73" y="-129" width="978.332" height="860.042" filterUnits="userSpaceOnUse" color-interpolation-filters="sRGB">
<feFlood flood-opacity="0" result="BackgroundImageFix"/>
<feColorMatrix in="SourceAlpha" type="matrix" values="0 0 0 0 0 0 0 0 0 0 0 0 0 0 0 0 0 0 127 0" result="hardAlpha"/>
<feOffset dy="10"/>
<feGaussianBlur stdDeviation="5"/>
<feComposite in2="hardAlpha" operator="out"/>
<feColorMatrix type="matrix" values="0 0 0 0 0.270588 0 0 0 0 0.266667 0 0 0 0 0.862745 0 0 0 1 0"/>
<feBlend mode="normal" in2="BackgroundImageFix" result="effect1_dropShadow_295_5122"/>
<feBlend mode="normal" in="SourceGraphic" in2="effect1_dropShadow_295_5122" result="shape"/>
</filter>
<filter id="filter7_d_295_5122" x="483.027" y="-103.525" width="875.738" height="776.11" filterUnits="userSpaceOnUse" color-interpolation-filters="sRGB">
<feFlood flood-opacity="0" result="BackgroundImageFix"/>
<feColorMatrix in="SourceAlpha" type="matrix" values="0 0 0 0 0 0 0 0 0 0 0 0 0 0 0 0 0 0 127 0" result="hardAlpha"/>
<feOffset dy="10"/>
<feGaussianBlur stdDeviation="5"/>
<feComposite in2="hardAlpha" operator="out"/>
<feColorMatrix type="matrix" values="0 0 0 0 0.270588 0 0 0 0 0.266667 0 0 0 0 0.862745 0 0 0 1 0"/>
<feBlend mode="normal" in2="BackgroundImageFix" result="effect1_dropShadow_295_5122"/>
<feBlend mode="normal" in="SourceGraphic" in2="effect1_dropShadow_295_5122" result="shape"/>
</filter>
<filter id="filter8_d_295_5122" x="535.227" y="-78.7939" width="789.342" height="706.418" filterUnits="userSpaceOnUse" color-interpolation-filters="sRGB">
<feFlood flood-opacity="0" result="BackgroundImageFix"/>
<feColorMatrix in="SourceAlpha" type="matrix" values="0 0 0 0 0 0 0 0 0 0 0 0 0 0 0 0 0 0 127 0" result="hardAlpha"/>
<feOffset dy="10"/>
<feGaussianBlur stdDeviation="5"/>
<feComposite in2="hardAlpha" operator="out"/>
<feColorMatrix type="matrix" values="0 0 0 0 0.270588 0 0 0 0 0.266667 0 0 0 0 0.862745 0 0 0 1 0"/>
<feBlend mode="normal" in2="BackgroundImageFix" result="effect1_dropShadow_295_5122"/>
<feBlend mode="normal" in="SourceGraphic" in2="effect1_dropShadow_295_5122" result="shape"/>
</filter>
<filter id="filter9_d_295_5122" x="584.73" y="-54.8204" width="708.34" height="650.218" filterUnits="userSpaceOnUse" color-interpolation-filters="sRGB">
<feFlood flood-opacity="0" result="BackgroundImageFix"/>
<feColorMatrix in="SourceAlpha" type="matrix" values="0 0 0 0 0 0 0 0 0 0 0 0 0 0 0 0 0 0 127 0" result="hardAlpha"/>
<feOffset dy="10"/>
<feGaussianBlur stdDeviation="5"/>
<feComposite in2="hardAlpha" operator="out"/>
<feColorMatrix type="matrix" values="0 0 0 0 0.270588 0 0 0 0 0.266667 0 0 0 0 0.862745 0 0 0 1 0"/>
<feBlend mode="normal" in2="BackgroundImageFix" result="effect1_dropShadow_295_5122"/>
<feBlend mode="normal" in="SourceGraphic" in2="effect1_dropShadow_295_5122" result="shape"/>
</filter>
<filter id="filter10_d_295_5122" x="625.227" y="-30.8346" width="639.039" height="579.025" filterUnits="userSpaceOnUse" color-interpolation-filters="sRGB">
<feFlood flood-opacity="0" result="BackgroundImageFix"/>
<feColorMatrix in="SourceAlpha" type="matrix" values="0 0 0 0 0 0 0 0 0 0 0 0 0 0 0 0 0 0 127 0" result="hardAlpha"/>
<feOffset dy="10"/>
<feGaussianBlur stdDeviation="5"/>
<feComposite in2="hardAlpha" operator="out"/>
<feColorMatrix type="matrix" values="0 0 0 0 0.270588 0 0 0 0 0.266667 0 0 0 0 0.862745 0 0 0 1 0"/>
<feBlend mode="normal" in2="BackgroundImageFix" result="effect1_dropShadow_295_5122"/>
<feBlend mode="normal" in="SourceGraphic" in2="effect1_dropShadow_295_5122" result="shape"/>
</filter>
<filter id="filter11_d_295_5122" x="656.73" y="-9.10376" width="579.639" height="500.34" filterUnits="userSpaceOnUse" color-interpolation-filters="sRGB">
<feFlood flood-opacity="0" result="BackgroundImageFix"/>
<feColorMatrix in="SourceAlpha" type="matrix" values="0 0 0 0 0 0 0 0 0 0 0 0 0 0 0 0 0 0 127 0" result="hardAlpha"/>
<feOffset dy="10"/>
<feGaussianBlur stdDeviation="5"/>
<feComposite in2="hardAlpha" operator="out"/>
<feColorMatrix type="matrix" values="0 0 0 0 0.270588 0 0 0 0 0.266667 0 0 0 0 0.862745 0 0 0 1 0"/>
<feBlend mode="normal" in2="BackgroundImageFix" result="effect1_dropShadow_295_5122"/>
<feBlend mode="normal" in="SourceGraphic" in2="effect1_dropShadow_295_5122" result="shape"/>
</filter>
<filter id="filter12_d_295_5122" x="675.629" y="13.3781" width="531.039" height="424.654" filterUnits="userSpaceOnUse" color-interpolation-filters="sRGB">
<feFlood flood-opacity="0" result="BackgroundImageFix"/>
<feColorMatrix in="SourceAlpha" type="matrix" values="0 0 0 0 0 0 0 0 0 0 0 0 0 0 0 0 0 0 127 0" result="hardAlpha"/>
<feOffset dy="10"/>
<feGaussianBlur stdDeviation="5"/>
<feComposite in2="hardAlpha" operator="out"/>
<feColorMatrix type="matrix" values="0 0 0 0 0.270588 0 0 0 0 0.266667 0 0 0 0 0.862745 0 0 0 1 0"/>
<feBlend mode="normal" in2="BackgroundImageFix" result="effect1_dropShadow_295_5122"/>
<feBlend mode="normal" in="SourceGraphic" in2="effect1_dropShadow_295_5122" result="shape"/>
</filter>
<filter id="filter13_d_295_5122" x="698.129" y="32.8621" width="480.639" height="371.446" filterUnits="userSpaceOnUse" color-interpolation-filters="sRGB">
<feFlood flood-opacity="0" result="BackgroundImageFix"/>
<feColorMatrix in="SourceAlpha" type="matrix" values="0 0 0 0 0 0 0 0 0 0 0 0 0 0 0 0 0 0 127 0" result="hardAlpha"/>
<feOffset dy="10"/>
<feGaussianBlur stdDeviation="5"/>
<feComposite in2="hardAlpha" operator="out"/>
<feColorMatrix type="matrix" values="0 0 0 0 0.270588 0 0 0 0 0.266667 0 0 0 0 0.862745 0 0 0 1 0"/>
<feBlend mode="normal" in2="BackgroundImageFix" result="effect1_dropShadow_295_5122"/>
<feBlend mode="normal" in="SourceGraphic" in2="effect1_dropShadow_295_5122" result="shape"/>
</filter>
<filter id="filter14_d_295_5122" x="722.43" y="47.8481" width="423.939" height="328.733" filterUnits="userSpaceOnUse" color-interpolation-filters="sRGB">
<feFlood flood-opacity="0" result="BackgroundImageFix"/>
<feColorMatrix in="SourceAlpha" type="matrix" values="0 0 0 0 0 0 0 0 0 0 0 0 0 0 0 0 0 0 127 0" result="hardAlpha"/>
<feOffset dy="10"/>
<feGaussianBlur stdDeviation="5"/>
<feComposite in2="hardAlpha" operator="out"/>
<feColorMatrix type="matrix" values="0 0 0 0 0.270588 0 0 0 0 0.266667 0 0 0 0 0.862745 0 0 0 1 0"/>
<feBlend mode="normal" in2="BackgroundImageFix" result="effect1_dropShadow_295_5122"/>
<feBlend mode="normal" in="SourceGraphic" in2="effect1_dropShadow_295_5122" result="shape"/>
</filter>
<filter id="filter15_d_295_5122" x="752.129" y="64.3359" width="363.641" height="283.02" filterUnits="userSpaceOnUse" color-interpolation-filters="sRGB">
<feFlood flood-opacity="0" result="BackgroundImageFix"/>
<feColorMatrix in="SourceAlpha" type="matrix" values="0 0 0 0 0 0 0 0 0 0 0 0 0 0 0 0 0 0 127 0" result="hardAlpha"/>
<feOffset dy="10"/>
<feGaussianBlur stdDeviation="5"/>
<feComposite in2="hardAlpha" operator="out"/>
<feColorMatrix type="matrix" values="0 0 0 0 0.270588 0 0 0 0 0.266667 0 0 0 0 0.862745 0 0 0 1 0"/>
<feBlend mode="normal" in2="BackgroundImageFix" result="effect1_dropShadow_295_5122"/>
<feBlend mode="normal" in="SourceGraphic" in2="effect1_dropShadow_295_5122" result="shape"/>
</filter>
<filter id="filter16_d_295_5122" x="785.43" y="83.0696" width="295.238" height="226.814" filterUnits="userSpaceOnUse" color-interpolation-filters="sRGB">
<feFlood flood-opacity="0" result="BackgroundImageFix"/>
<feColorMatrix in="SourceAlpha" type="matrix" values="0 0 0 0 0 0 0 0 0 0 0 0 0 0 0 0 0 0 127 0" result="hardAlpha"/>
<feOffset dy="10"/>
<feGaussianBlur stdDeviation="5"/>
<feComposite in2="hardAlpha" operator="out"/>
<feColorMatrix type="matrix" values="0 0 0 0 0.270588 0 0 0 0 0.266667 0 0 0 0 0.862745 0 0 0 1 0"/>
<feBlend mode="normal" in2="BackgroundImageFix" result="effect1_dropShadow_295_5122"/>
<feBlend mode="normal" in="SourceGraphic" in2="effect1_dropShadow_295_5122" result="shape"/>
</filter>
<filter id="filter17_d_295_5122" x="823.227" y="103.303" width="214.242" height="163.869" filterUnits="userSpaceOnUse" color-interpolation-filters="sRGB">
<feFlood flood-opacity="0" result="BackgroundImageFix"/>
<feColorMatrix in="SourceAlpha" type="matrix" values="0 0 0 0 0 0 0 0 0 0 0 0 0 0 0 0 0 0 127 0" result="hardAlpha"/>
<feOffset dy="10"/>
<feGaussianBlur stdDeviation="5"/>
<feComposite in2="hardAlpha" operator="out"/>
<feColorMatrix type="matrix" values="0 0 0 0 0.270588 0 0 0 0 0.266667 0 0 0 0 0.862745 0 0 0 1 0"/>
<feBlend mode="normal" in2="BackgroundImageFix" result="effect1_dropShadow_295_5122"/>
<feBlend mode="normal" in="SourceGraphic" in2="effect1_dropShadow_295_5122" result="shape"/>
</filter>
<filter id="filter18_d_295_5122" x="865.527" y="128.785" width="123.34" height="94.1743" filterUnits="userSpaceOnUse" color-interpolation-filters="sRGB">
<feFlood flood-opacity="0" result="BackgroundImageFix"/>
<feColorMatrix in="SourceAlpha" type="matrix" values="0 0 0 0 0 0 0 0 0 0 0 0 0 0 0 0 0 0 127 0" result="hardAlpha"/>
<feOffset dy="10"/>
<feGaussianBlur stdDeviation="5"/>
<feComposite in2="hardAlpha" operator="out"/>
<feColorMatrix type="matrix" values="0 0 0 0 0.270588 0 0 0 0 0.266667 0 0 0 0 0.862745 0 0 0 1 0"/>
<feBlend mode="normal" in2="BackgroundImageFix" result="effect1_dropShadow_295_5122"/>
<feBlend mode="normal" in="SourceGraphic" in2="effect1_dropShadow_295_5122" result="shape"/>
</filter>
<filter id="filter19_d_295_5122" x="-121.77" y="-35.3314" width="618.34" height="711.666" filterUnits="userSpaceOnUse" color-interpolation-filters="sRGB">
<feFlood flood-opacity="0" result="BackgroundImageFix"/>
<feColorMatrix in="SourceAlpha" type="matrix" values="0 0 0 0 0 0 0 0 0 0 0 0 0 0 0 0 0 0 127 0" result="hardAlpha"/>
<feOffset dy="10"/>
<feGaussianBlur stdDeviation="5"/>
<feComposite in2="hardAlpha" operator="out"/>
<feColorMatrix type="matrix" values="0 0 0 0 0.270588 0 0 0 0 0.266667 0 0 0 0 0.862745 0 0 0 1 0"/>
<feBlend mode="normal" in2="BackgroundImageFix" result="effect1_dropShadow_295_5122"/>
<feBlend mode="normal" in="SourceGraphic" in2="effect1_dropShadow_295_5122" result="shape"/>
</filter>
<filter id="filter20_d_295_5122" x="-101.973" y="-19.5978" width="568.84" height="649.468" filterUnits="userSpaceOnUse" color-interpolation-filters="sRGB">
<feFlood flood-opacity="0" result="BackgroundImageFix"/>
<feColorMatrix in="SourceAlpha" type="matrix" values="0 0 0 0 0 0 0 0 0 0 0 0 0 0 0 0 0 0 127 0" result="hardAlpha"/>
<feOffset dy="10"/>
<feGaussianBlur stdDeviation="5"/>
<feComposite in2="hardAlpha" operator="out"/>
<feColorMatrix type="matrix" values="0 0 0 0 0.270588 0 0 0 0 0.266667 0 0 0 0 0.862745 0 0 0 1 0"/>
<feBlend mode="normal" in2="BackgroundImageFix" result="effect1_dropShadow_295_5122"/>
<feBlend mode="normal" in="SourceGraphic" in2="effect1_dropShadow_295_5122" result="shape"/>
</filter>
<filter id="filter21_d_295_5122" x="-79.4727" y="0.638916" width="501.34" height="563.286" filterUnits="userSpaceOnUse" color-interpolation-filters="sRGB">
<feFlood flood-opacity="0" result="BackgroundImageFix"/>
<feColorMatrix in="SourceAlpha" type="matrix" values="0 0 0 0 0 0 0 0 0 0 0 0 0 0 0 0 0 0 127 0" result="hardAlpha"/>
<feOffset dy="10"/>
<feGaussianBlur stdDeviation="5"/>
<feComposite in2="hardAlpha" operator="out"/>
<feColorMatrix type="matrix" values="0 0 0 0 0.270588 0 0 0 0 0.266667 0 0 0 0 0.862745 0 0 0 1 0"/>
<feBlend mode="normal" in2="BackgroundImageFix" result="effect1_dropShadow_295_5122"/>
<feBlend mode="normal" in="SourceGraphic" in2="effect1_dropShadow_295_5122" result="shape"/>
</filter>
<filter id="filter22_d_295_5122" x="-59.6719" y="26.1146" width="426.645" height="468.119" filterUnits="userSpaceOnUse" color-interpolation-filters="sRGB">
<feFlood flood-opacity="0" result="BackgroundImageFix"/>
<feColorMatrix in="SourceAlpha" type="matrix" values="0 0 0 0 0 0 0 0 0 0 0 0 0 0 0 0 0 0 127 0" result="hardAlpha"/>
<feOffset dy="10"/>
<feGaussianBlur stdDeviation="5"/>
<feComposite in2="hardAlpha" operator="out"/>
<feColorMatrix type="matrix" values="0 0 0 0 0.270588 0 0 0 0 0.266667 0 0 0 0 0.862745 0 0 0 1 0"/>
<feBlend mode="normal" in2="BackgroundImageFix" result="effect1_dropShadow_295_5122"/>
<feBlend mode="normal" in="SourceGraphic" in2="effect1_dropShadow_295_5122" result="shape"/>
</filter>
<filter id="filter23_d_295_5122" x="-38.9688" y="56.088" width="352.844" height="375.946" filterUnits="userSpaceOnUse" color-interpolation-filters="sRGB">
<feFlood flood-opacity="0" result="BackgroundImageFix"/>
<feColorMatrix in="SourceAlpha" type="matrix" values="0 0 0 0 0 0 0 0 0 0 0 0 0 0 0 0 0 0 127 0" result="hardAlpha"/>
<feOffset dy="10"/>
<feGaussianBlur stdDeviation="5"/>
<feComposite in2="hardAlpha" operator="out"/>
<feColorMatrix type="matrix" values="0 0 0 0 0.270588 0 0 0 0 0.266667 0 0 0 0 0.862745 0 0 0 1 0"/>
<feBlend mode="normal" in2="BackgroundImageFix" result="effect1_dropShadow_295_5122"/>
<feBlend mode="normal" in="SourceGraphic" in2="effect1_dropShadow_295_5122" result="shape"/>
</filter>
<filter id="filter24_d_295_5122" x="-19.1719" y="85.3182" width="291.641" height="309.997" filterUnits="userSpaceOnUse" color-interpolation-filters="sRGB">
<feFlood flood-opacity="0" result="BackgroundImageFix"/>
<feColorMatrix in="SourceAlpha" type="matrix" values="0 0 0 0 0 0 0 0 0 0 0 0 0 0 0 0 0 0 127 0" result="hardAlpha"/>
<feOffset dy="10"/>
<feGaussianBlur stdDeviation="5"/>
<feComposite in2="hardAlpha" operator="out"/>
<feColorMatrix type="matrix" values="0 0 0 0 0.270588 0 0 0 0 0.266667 0 0 0 0 0.862745 0 0 0 1 0"/>
<feBlend mode="normal" in2="BackgroundImageFix" result="effect1_dropShadow_295_5122"/>
<feBlend mode="normal" in="SourceGraphic" in2="effect1_dropShadow_295_5122" result="shape"/>
</filter>
<filter id="filter25_d_295_5122" x="-1.17188" y="113.794" width="248.438" height="265.035" filterUnits="userSpaceOnUse" color-interpolation-filters="sRGB">
<feFlood flood-opacity="0" result="BackgroundImageFix"/>
<feColorMatrix in="SourceAlpha" type="matrix" values="0 0 0 0 0 0 0 0 0 0 0 0 0 0 0 0 0 0 127 0" result="hardAlpha"/>
<feOffset dy="10"/>
<feGaussianBlur stdDeviation="5"/>
<feComposite in2="hardAlpha" operator="out"/>
<feColorMatrix type="matrix" values="0 0 0 0 0.270588 0 0 0 0 0.266667 0 0 0 0 0.862745 0 0 0 1 0"/>
<feBlend mode="normal" in2="BackgroundImageFix" result="effect1_dropShadow_295_5122"/>
<feBlend mode="normal" in="SourceGraphic" in2="effect1_dropShadow_295_5122" result="shape"/>
</filter>
<filter id="filter26_d_295_5122" x="12.3281" y="140.772" width="213.336" height="223.07" filterUnits="userSpaceOnUse" color-interpolation-filters="sRGB">
<feFlood flood-opacity="0" result="BackgroundImageFix"/>
<feColorMatrix in="SourceAlpha" type="matrix" values="0 0 0 0 0 0 0 0 0 0 0 0 0 0 0 0 0 0 127 0" result="hardAlpha"/>
<feOffset dy="10"/>
<feGaussianBlur stdDeviation="5"/>
<feComposite in2="hardAlpha" operator="out"/>
<feColorMatrix type="matrix" values="0 0 0 0 0.270588 0 0 0 0 0.266667 0 0 0 0 0.862745 0 0 0 1 0"/>
<feBlend mode="normal" in2="BackgroundImageFix" result="effect1_dropShadow_295_5122"/>
<feBlend mode="normal" in="SourceGraphic" in2="effect1_dropShadow_295_5122" result="shape"/>
</filter>
<filter id="filter27_d_295_5122" x="25.832" y="162.507" width="177.34" height="187.846" filterUnits="userSpaceOnUse" color-interpolation-filters="sRGB">
<feFlood flood-opacity="0" result="BackgroundImageFix"/>
<feColorMatrix in="SourceAlpha" type="matrix" values="0 0 0 0 0 0 0 0 0 0 0 0 0 0 0 0 0 0 127 0" result="hardAlpha"/>
<feOffset dy="10"/>
<feGaussianBlur stdDeviation="5"/>
<feComposite in2="hardAlpha" operator="out"/>
<feColorMatrix type="matrix" values="0 0 0 0 0.270588 0 0 0 0 0.266667 0 0 0 0 0.862745 0 0 0 1 0"/>
<feBlend mode="normal" in2="BackgroundImageFix" result="effect1_dropShadow_295_5122"/>
<feBlend mode="normal" in="SourceGraphic" in2="effect1_dropShadow_295_5122" result="shape"/>
</filter>
<filter id="filter28_d_295_5122" x="38.4297" y="179.739" width="144.941" height="157.125" filterUnits="userSpaceOnUse" color-interpolation-filters="sRGB">
<feFlood flood-opacity="0" result="BackgroundImageFix"/>
<feColorMatrix in="SourceAlpha" type="matrix" values="0 0 0 0 0 0 0 0 0 0 0 0 0 0 0 0 0 0 127 0" result="hardAlpha"/>
<feOffset dy="10"/>
<feGaussianBlur stdDeviation="5"/>
<feComposite in2="hardAlpha" operator="out"/>
<feColorMatrix type="matrix" values="0 0 0 0 0.270588 0 0 0 0 0.266667 0 0 0 0 0.862745 0 0 0 1 0"/>
<feBlend mode="normal" in2="BackgroundImageFix" result="effect1_dropShadow_295_5122"/>
<feBlend mode="normal" in="SourceGraphic" in2="effect1_dropShadow_295_5122" result="shape"/>
</filter>
<filter id="filter29_d_295_5122" x="51.9297" y="189.484" width="116.141" height="129.395" filterUnits="userSpaceOnUse" color-interpolation-filters="sRGB">
<feFlood flood-opacity="0" result="BackgroundImageFix"/>
<feColorMatrix in="SourceAlpha" type="matrix" values="0 0 0 0 0 0 0 0 0 0 0 0 0 0 0 0 0 0 127 0" result="hardAlpha"/>
<feOffset dy="10"/>
<feGaussianBlur stdDeviation="5"/>
<feComposite in2="hardAlpha" operator="out"/>
<feColorMatrix type="matrix" values="0 0 0 0 0.270588 0 0 0 0 0.266667 0 0 0 0 0.862745 0 0 0 1 0"/>
<feBlend mode="normal" in2="BackgroundImageFix" result="effect1_dropShadow_295_5122"/>
<feBlend mode="normal" in="SourceGraphic" in2="effect1_dropShadow_295_5122" result="shape"/>
</filter>
<filter id="filter30_d_295_5122" x="64.5312" y="200.721" width="88.2383" height="98.6741" filterUnits="userSpaceOnUse" color-interpolation-filters="sRGB">
<feFlood flood-opacity="0" result="BackgroundImageFix"/>
<feColorMatrix in="SourceAlpha" type="matrix" values="0 0 0 0 0 0 0 0 0 0 0 0 0 0 0 0 0 0 127 0" result="hardAlpha"/>
<feOffset dy="10"/>
<feGaussianBlur stdDeviation="5"/>
<feComposite in2="hardAlpha" operator="out"/>
<feColorMatrix type="matrix" values="0 0 0 0 0.270588 0 0 0 0 0.266667 0 0 0 0 0.862745 0 0 0 1 0"/>
<feBlend mode="normal" in2="BackgroundImageFix" result="effect1_dropShadow_295_5122"/>
<feBlend mode="normal" in="SourceGraphic" in2="effect1_dropShadow_295_5122" result="shape"/>
</filter>
<filter id="filter31_d_295_5122" x="-31.7695" y="667.584" width="1440.94" height="668.197" filterUnits="userSpaceOnUse" color-interpolation-filters="sRGB">
<feFlood flood-opacity="0" result="BackgroundImageFix"/>
<feColorMatrix in="SourceAlpha" type="matrix" values="0 0 0 0 0 0 0 0 0 0 0 0 0 0 0 0 0 0 127 0" result="hardAlpha"/>
<feOffset dy="10"/>
<feGaussianBlur stdDeviation="5"/>
<feComposite in2="hardAlpha" operator="out"/>
<feColorMatrix type="matrix" values="0 0 0 0 0.270588 0 0 0 0 0.266667 0 0 0 0 0.862745 0 0 0 1 0"/>
<feBlend mode="normal" in2="BackgroundImageFix" result="effect1_dropShadow_295_5122"/>
<feBlend mode="normal" in="SourceGraphic" in2="effect1_dropShadow_295_5122" result="shape"/>
</filter>
<filter id="filter32_d_295_5122" x="-11.0742" y="693.061" width="1306.85" height="597.761" filterUnits="userSpaceOnUse" color-interpolation-filters="sRGB">
<feFlood flood-opacity="0" result="BackgroundImageFix"/>
<feColorMatrix in="SourceAlpha" type="matrix" values="0 0 0 0 0 0 0 0 0 0 0 0 0 0 0 0 0 0 127 0" result="hardAlpha"/>
<feOffset dy="10"/>
<feGaussianBlur stdDeviation="5"/>
<feComposite in2="hardAlpha" operator="out"/>
<feColorMatrix type="matrix" values="0 0 0 0 0.270588 0 0 0 0 0.266667 0 0 0 0 0.862745 0 0 0 1 0"/>
<feBlend mode="normal" in2="BackgroundImageFix" result="effect1_dropShadow_295_5122"/>
<feBlend mode="normal" in="SourceGraphic" in2="effect1_dropShadow_295_5122" result="shape"/>
</filter>
<filter id="filter33_d_295_5122" x="26.7266" y="732.03" width="1139.44" height="510.08" filterUnits="userSpaceOnUse" color-interpolation-filters="sRGB">
<feFlood flood-opacity="0" result="BackgroundImageFix"/>
<feColorMatrix in="SourceAlpha" type="matrix" values="0 0 0 0 0 0 0 0 0 0 0 0 0 0 0 0 0 0 127 0" result="hardAlpha"/>
<feOffset dy="10"/>
<feGaussianBlur stdDeviation="5"/>
<feComposite in2="hardAlpha" operator="out"/>
<feColorMatrix type="matrix" values="0 0 0 0 0.270588 0 0 0 0 0.266667 0 0 0 0 0.862745 0 0 0 1 0"/>
<feBlend mode="normal" in2="BackgroundImageFix" result="effect1_dropShadow_295_5122"/>
<feBlend mode="normal" in="SourceGraphic" in2="effect1_dropShadow_295_5122" result="shape"/>
</filter>
<filter id="filter34_d_295_5122" x="75.3281" y="772.495" width="955.84" height="420.906" filterUnits="userSpaceOnUse" color-interpolation-filters="sRGB">
<feFlood flood-opacity="0" result="BackgroundImageFix"/>
<feColorMatrix in="SourceAlpha" type="matrix" values="0 0 0 0 0 0 0 0 0 0 0 0 0 0 0 0 0 0 127 0" result="hardAlpha"/>
<feOffset dy="10"/>
<feGaussianBlur stdDeviation="5"/>
<feComposite in2="hardAlpha" operator="out"/>
<feColorMatrix type="matrix" values="0 0 0 0 0.270588 0 0 0 0 0.266667 0 0 0 0 0.862745 0 0 0 1 0"/>
<feBlend mode="normal" in2="BackgroundImageFix" result="effect1_dropShadow_295_5122"/>
<feBlend mode="normal" in="SourceGraphic" in2="effect1_dropShadow_295_5122" result="shape"/>
</filter>
<filter id="filter35_d_295_5122" x="126.625" y="797.972" width="801.043" height="351.965" filterUnits="userSpaceOnUse" color-interpolation-filters="sRGB">
<feFlood flood-opacity="0" result="BackgroundImageFix"/>
<feColorMatrix in="SourceAlpha" type="matrix" values="0 0 0 0 0 0 0 0 0 0 0 0 0 0 0 0 0 0 127 0" result="hardAlpha"/>
<feOffset dy="10"/>
<feGaussianBlur stdDeviation="5"/>
<feComposite in2="hardAlpha" operator="out"/>
<feColorMatrix type="matrix" values="0 0 0 0 0.270588 0 0 0 0 0.266667 0 0 0 0 0.862745 0 0 0 1 0"/>
<feBlend mode="normal" in2="BackgroundImageFix" result="effect1_dropShadow_295_5122"/>
<feBlend mode="normal" in="SourceGraphic" in2="effect1_dropShadow_295_5122" result="shape"/>
</filter>
<filter id="filter36_d_295_5122" x="181.531" y="825.697" width="688.543" height="286.772" filterUnits="userSpaceOnUse" color-interpolation-filters="sRGB">
<feFlood flood-opacity="0" result="BackgroundImageFix"/>
<feColorMatrix in="SourceAlpha" type="matrix" values="0 0 0 0 0 0 0 0 0 0 0 0 0 0 0 0 0 0 127 0" result="hardAlpha"/>
<feOffset dy="10"/>
<feGaussianBlur stdDeviation="5"/>
<feComposite in2="hardAlpha" operator="out"/>
<feColorMatrix type="matrix" values="0 0 0 0 0.270588 0 0 0 0 0.266667 0 0 0 0 0.862745 0 0 0 1 0"/>
<feBlend mode="normal" in2="BackgroundImageFix" result="effect1_dropShadow_295_5122"/>
<feBlend mode="normal" in="SourceGraphic" in2="effect1_dropShadow_295_5122" result="shape"/>
</filter>
<filter id="filter37_d_295_5122" x="222.918" y="854.921" width="576.047" height="228.319" filterUnits="userSpaceOnUse" color-interpolation-filters="sRGB">
<feFlood flood-opacity="0" result="BackgroundImageFix"/>
<feColorMatrix in="SourceAlpha" type="matrix" values="0 0 0 0 0 0 0 0 0 0 0 0 0 0 0 0 0 0 127 0" result="hardAlpha"/>
<feOffset dy="10"/>
<feGaussianBlur stdDeviation="5"/>
<feComposite in2="hardAlpha" operator="out"/>
<feColorMatrix type="matrix" values="0 0 0 0 0.270588 0 0 0 0 0.266667 0 0 0 0 0.862745 0 0 0 1 0"/>
<feBlend mode="normal" in2="BackgroundImageFix" result="effect1_dropShadow_295_5122"/>
<feBlend mode="normal" in="SourceGraphic" in2="effect1_dropShadow_295_5122" result="shape"/>
</filter>
<filter id="filter38_d_295_5122" x="240.031" y="879.658" width="477.039" height="185.604" filterUnits="userSpaceOnUse" color-interpolation-filters="sRGB">
<feFlood flood-opacity="0" result="BackgroundImageFix"/>
<feColorMatrix in="SourceAlpha" type="matrix" values="0 0 0 0 0 0 0 0 0 0 0 0 0 0 0 0 0 0 127 0" result="hardAlpha"/>
<feOffset dy="10"/>
<feGaussianBlur stdDeviation="5"/>
<feComposite in2="hardAlpha" operator="out"/>
<feColorMatrix type="matrix" values="0 0 0 0 0.270588 0 0 0 0 0.266667 0 0 0 0 0.862745 0 0 0 1 0"/>
<feBlend mode="normal" in2="BackgroundImageFix" result="effect1_dropShadow_295_5122"/>
<feBlend mode="normal" in="SourceGraphic" in2="effect1_dropShadow_295_5122" result="shape"/>
</filter>
<filter id="filter39_d_295_5122" x="272.434" y="902.887" width="377.137" height="151.879" filterUnits="userSpaceOnUse" color-interpolation-filters="sRGB">
<feFlood flood-opacity="0" result="BackgroundImageFix"/>
<feColorMatrix in="SourceAlpha" type="matrix" values="0 0 0 0 0 0 0 0 0 0 0 0 0 0 0 0 0 0 127 0" result="hardAlpha"/>
<feOffset dy="10"/>
<feGaussianBlur stdDeviation="5"/>
<feComposite in2="hardAlpha" operator="out"/>
<feColorMatrix type="matrix" values="0 0 0 0 0.270588 0 0 0 0 0.266667 0 0 0 0 0.862745 0 0 0 1 0"/>
<feBlend mode="normal" in2="BackgroundImageFix" result="effect1_dropShadow_295_5122"/>
<feBlend mode="normal" in="SourceGraphic" in2="effect1_dropShadow_295_5122" result="shape"/>
</filter>
<clipPath id="clip0_295_5122">
<rect width="1440" height="900" fill="white" transform="translate(20 10)"/>
</clipPath>
</defs>
</svg>
