<svg width="21" height="20" viewBox="0 0 21 20" fill="none" xmlns="http://www.w3.org/2000/svg">
<path d="M10.7513 1.66663C9.10313 1.66663 7.49196 2.15537 6.12155 3.07105C4.75114 3.98672 3.68304 5.28821 3.05231 6.81093C2.42158 8.33365 2.25655 10.0092 2.5781 11.6257C2.89964 13.2422 3.69331 14.7271 4.85875 15.8925C6.02419 17.058 7.50905 17.8516 9.12555 18.1732C10.7421 18.4947 12.4176 18.3297 13.9403 17.699C15.4631 17.0682 16.7645 16.0001 17.6802 14.6297C18.5959 13.2593 19.0846 11.6481 19.0846 9.99996C19.0821 7.7906 18.2033 5.67245 16.6411 4.11019C15.0788 2.54794 12.9607 1.66915 10.7513 1.66663ZM13.8405 13.0891C13.7631 13.1665 13.6713 13.2279 13.5702 13.2698C13.4691 13.3117 13.3607 13.3333 13.2513 13.3333C13.1419 13.3333 13.0335 13.3117 12.9324 13.2698C12.8313 13.2279 12.7394 13.1665 12.6621 13.0891L10.1621 10.5891C10.0847 10.5118 10.0233 10.4199 9.9814 10.3188C9.93951 10.2177 9.91796 10.1094 9.91797 9.99996V4.99996C9.91797 4.77895 10.0058 4.56698 10.1621 4.4107C10.3183 4.25442 10.5303 4.16663 10.7513 4.16663C10.9723 4.16663 11.1843 4.25442 11.3406 4.4107C11.4968 4.56698 11.5846 4.77895 11.5846 4.99996V9.65491L13.8405 11.9107C13.9179 11.9881 13.9793 12.08 14.0212 12.181C14.0631 12.2821 14.0846 12.3905 14.0846 12.4999C14.0846 12.6094 14.0631 12.7177 14.0212 12.8188C13.9793 12.9199 13.9179 13.0118 13.8405 13.0891Z" fill="white"/>
</svg>
