<svg width="26" height="24" viewBox="0 0 26 24" fill="none" xmlns="http://www.w3.org/2000/svg">
<path d="M21.2833 11.2279C20.5224 10.4104 20.1766 9.70201 20.1766 8.49844V8.08921C20.1766 6.5208 19.7843 5.51027 18.9312 4.49973C17.6164 2.93037 15.403 1.9845 13.2362 1.9845H13.144C11.0228 1.9845 8.87871 2.88693 7.54114 4.3926C6.64149 5.4234 6.20357 6.47737 6.20357 8.08921V8.49844C6.20357 9.70201 5.88056 10.4104 5.09686 11.2279C4.52022 11.8302 4.33594 12.6043 4.33594 13.442C4.33594 14.2808 4.63513 15.0751 5.23559 15.7208C6.01929 16.4949 7.126 16.9891 8.25651 17.075C9.89328 17.2468 11.53 17.3114 13.1906 17.3114C14.8502 17.3114 16.4869 17.2033 18.1247 17.075C19.2542 16.9891 20.3609 16.4949 21.1446 15.7208C21.744 15.0751 22.0443 14.2808 22.0443 13.442C22.0443 12.6043 21.86 11.8302 21.2833 11.2279Z" fill="white"/>
<path opacity="0.4" d="M15.2818 18.4951C14.761 18.3928 11.5879 18.3928 11.0672 18.4951C10.622 18.5897 10.1406 18.8097 10.1406 19.2923C10.1665 19.7527 10.4595 20.159 10.8653 20.4167L10.8643 20.4177C11.3892 20.7941 12.0052 21.0335 12.6501 21.1194C12.9938 21.1628 13.3438 21.1609 13.6999 21.1194C14.3438 21.0335 14.9598 20.7941 15.4847 20.4177L15.4837 20.4167C15.8895 20.159 16.1825 19.7527 16.2084 19.2923C16.2084 18.8097 15.727 18.5897 15.2818 18.4951Z" fill="white"/>
</svg>
