<svg width="14" height="14" viewBox="0 0 14 14" fill="none" xmlns="http://www.w3.org/2000/svg">
<path d="M6.57488 9.07617C6.54346 9.04557 6.40913 8.93 6.29863 8.82236C5.60367 8.19125 4.46617 6.54488 4.11896 5.68317C4.06317 5.5523 3.94508 5.22145 3.9375 5.04467C3.9375 4.87529 3.9765 4.71382 4.05558 4.55973C4.16608 4.36766 4.33996 4.21357 4.54525 4.12914C4.68771 4.07479 5.114 3.99036 5.12158 3.99036C5.58796 3.90593 6.34575 3.8595 7.18317 3.8595C7.98104 3.8595 8.70796 3.90593 9.18138 3.97506C9.18896 3.98297 9.71871 4.0674 9.90017 4.15975C10.2317 4.32914 10.4375 4.65999 10.4375 5.01407V5.04467C10.4294 5.27527 10.2235 5.76021 10.216 5.76021C9.86821 6.57548 8.7865 8.18386 8.06771 8.83027C8.06771 8.83027 7.883 9.01232 7.76763 9.09148C7.60188 9.21495 7.39658 9.27616 7.19129 9.27616C6.96217 9.27616 6.74875 9.20704 6.57488 9.07617Z" fill="#ADB3CC"/>
</svg>
