<svg width="119" height="14" viewBox="0 0 119 14" fill="none" xmlns="http://www.w3.org/2000/svg">
<path d="M5.89796 13.8645C9.41462 13.8645 11.1202 12.1062 11.1202 10.0489C11.1202 5.53001 3.9638 7.09492 3.9638 4.82668C3.9638 4.05302 4.61438 3.42002 6.30237 3.42002C7.39254 3.42002 8.57062 3.73652 9.71353 4.3871L10.5927 2.22435C9.44978 1.50344 7.86729 1.13419 6.31996 1.13419C2.82088 1.13419 1.13288 2.87493 1.13288 4.96735C1.13288 9.539 8.28929 7.95651 8.28929 10.2599C8.28929 11.016 7.60354 11.5787 5.91554 11.5787C4.43854 11.5787 2.89121 11.0512 1.8538 10.2951L0.886719 12.4402C1.97688 13.2842 3.94621 13.8645 5.89796 13.8645Z" fill="white"/>
<path d="M18.2361 11.2622C17.9372 11.4907 17.5327 11.6138 17.1283 11.6138C16.3898 11.6138 15.9502 11.1742 15.9502 10.3654V6.51468H18.3064V4.40468H15.9502V2.10127H13.2073V4.40468H11.7478V6.51468H13.2073V10.4006C13.2073 12.6512 14.5084 13.7942 16.7415 13.7942C17.5855 13.7942 18.4119 13.6007 18.9746 13.1963L18.2361 11.2622Z" fill="white"/>
<path d="M27.3015 4.19368V8.87084C27.3015 10.6116 26.3872 11.4204 25.1212 11.4204C23.9079 11.4204 23.2046 10.7171 23.2046 9.13459V4.19368H20.4616V9.539C20.4616 12.4578 22.132 13.7942 24.5058 13.7942C25.6663 13.7942 26.7212 13.3546 27.4422 12.5282V13.6535H30.0445V4.19368H27.3015Z" fill="white"/>
<path d="M39.4783 0.606689V5.19593C38.7926 4.42226 37.8079 4.05302 36.6474 4.05302C33.9748 4.05302 31.9175 5.95201 31.9175 8.92359C31.9175 11.8952 33.9748 13.7942 36.6474 13.7942C37.9134 13.7942 38.9157 13.3897 39.6014 12.5633V13.6535H42.2213V0.606689H39.4783ZM37.1222 11.5435C35.7507 11.5435 34.6957 10.5588 34.6957 8.92359C34.6957 7.28834 35.7507 6.30368 37.1222 6.30368C38.4761 6.30368 39.5311 7.28834 39.5311 8.92359C39.5311 10.5588 38.4761 11.5435 37.1222 11.5435Z" fill="white"/>
<path d="M54.0265 8.95875C54.0265 5.91684 51.8813 4.05302 49.1031 4.05302C46.2195 4.05302 44.0567 6.09268 44.0567 8.92359C44.0567 11.7369 46.1843 13.7942 49.4548 13.7942C51.1604 13.7942 52.4791 13.2667 53.3583 12.2644L51.8989 10.6819C51.2483 11.2973 50.5274 11.5962 49.5251 11.5962C48.0833 11.5962 47.0811 10.8753 46.8173 9.69725H53.9737C53.9913 9.46867 54.0265 9.16975 54.0265 8.95875ZM49.1207 6.12784C50.3515 6.12784 51.2483 6.90151 51.4417 8.09717H46.7821C46.9756 6.88393 47.8723 6.12784 49.1207 6.12784Z" fill="white"/>
<path d="M61.6024 4.05302C60.3188 4.05302 59.2111 4.4926 58.4726 5.30143V4.19368H55.8526V13.6535H58.5956V8.97634C58.5956 7.23559 59.5451 6.42676 60.8639 6.42676C62.0771 6.42676 62.7805 7.13009 62.7805 8.65984V13.6535H65.5235V8.23784C65.5235 5.35418 63.8355 4.05302 61.6024 4.05302Z" fill="white"/>
<path d="M73.3727 11.2622C73.0738 11.4907 72.6694 11.6138 72.265 11.6138C71.5265 11.6138 71.0869 11.1742 71.0869 10.3654V6.51468H73.4431V4.40468H71.0869V2.10127H68.3439V4.40468H66.8845V6.51468H68.3439V10.4006C68.3439 12.6512 69.6451 13.7942 71.8782 13.7942C72.7222 13.7942 73.5486 13.6007 74.1112 13.1963L73.3727 11.2622Z" fill="white"/>
<path d="M78.8336 13.7942C81.6645 13.7942 83.2998 12.5457 83.2998 10.7874C83.2998 7.05976 77.5852 8.62467 77.5852 7.00701C77.5852 6.51468 78.1127 6.12784 79.3435 6.12784C80.2051 6.12784 81.137 6.30368 82.0689 6.83118L82.9833 4.87943C82.0865 4.35193 80.6447 4.05302 79.3435 4.05302C76.5829 4.05302 74.9653 5.31901 74.9653 7.11251C74.9653 10.8929 80.6798 9.31042 80.6798 10.8577C80.6798 11.3852 80.2051 11.7193 78.9391 11.7193C77.7786 11.7193 76.495 11.3501 75.651 10.805L74.7367 12.7743C75.6159 13.3546 77.2335 13.7942 78.8336 13.7942Z" fill="white"/>
<path d="M90.8509 13.6535H91.7477V1.34519H90.8509V13.6535Z" fill="white"/>
<path d="M100.239 4.40468C98.4983 4.40468 97.2147 5.17835 96.5993 6.46193V4.47501H95.7553V13.6535H96.6345V8.76534C96.6345 6.58501 97.9532 5.19593 100.116 5.19593C101.98 5.19593 103.088 6.28609 103.088 8.36092V13.6535H103.967V8.29059C103.967 5.72343 102.472 4.40468 100.239 4.40468Z" fill="white"/>
<path d="M111.243 13.7238C112.703 13.7238 113.969 13.1436 114.725 12.0358L114.074 11.5611C113.406 12.493 112.386 12.9326 111.243 12.9326C109.08 12.9326 107.498 11.3852 107.498 9.06425C107.498 6.74326 109.08 5.19593 111.243 5.19593C112.386 5.19593 113.406 5.63551 114.074 6.56743L114.725 6.09268C113.969 4.96735 112.703 4.40468 111.243 4.40468C108.553 4.40468 106.601 6.32126 106.601 9.06425C106.601 11.7897 108.553 13.7238 111.243 13.7238Z" fill="white"/>
<path d="M117.595 13.7238C117.999 13.7238 118.333 13.3897 118.333 12.9677C118.333 12.5457 117.999 12.2292 117.595 12.2292C117.19 12.2292 116.856 12.5457 116.856 12.9677C116.856 13.3897 117.19 13.7238 117.595 13.7238Z" fill="white"/>
</svg>
