<svg width="69" height="79" viewBox="0 0 69 79" fill="none" xmlns="http://www.w3.org/2000/svg">
<path d="M57.6929 27.4439C59.1406 30.8873 59.9707 34.6173 60.1356 38.4212C60.3005 42.225 59.7971 46.0281 58.654 49.6133C57.511 53.1984 55.7507 56.4955 53.4737 59.3163C51.1967 62.137 48.4476 64.4262 45.3833 66.0531C42.319 67.6799 38.9996 68.6127 35.6145 68.798C32.2295 68.9833 28.8451 68.4176 25.6546 67.1331C22.4641 65.8487 19.5299 63.8706 17.0197 61.312C14.5095 58.7533 12.4724 55.6641 11.0246 52.2207L34.3587 39.8323L57.6929 27.4439Z" fill="#524BD5"/>
<path d="M39.155 20C39.155 22.6264 38.6947 25.2272 37.8002 27.6537C36.9058 30.0802 35.5948 32.285 33.9421 34.1421C32.2894 35.9993 30.3273 37.4725 28.1679 38.4776C26.0085 39.4827 23.6941 40 21.3568 40C19.0195 40 16.7051 39.4827 14.5457 38.4776C12.3864 37.4725 10.4243 35.9993 8.77157 34.1421C7.11885 32.285 5.80785 30.0802 4.9134 27.6537C4.01896 25.2272 3.55859 22.6264 3.55859 20L21.3568 20H39.155Z" fill="#F8A76F"/>
</svg>
