<svg width="65" height="58" viewBox="0 0 65 58" fill="none" xmlns="http://www.w3.org/2000/svg">
<path d="M32.2046 58C27.9855 58 23.8078 57.2499 19.9099 55.7925C16.0121 54.3351 12.4703 52.199 9.48704 49.5061C6.50373 46.8132 4.13724 43.6163 2.52268 40.0978C0.908127 36.5794 0.0771255 32.8083 0.0771255 29C0.0771255 25.1917 0.908127 21.4206 2.52268 17.9022C4.13724 14.3837 6.50373 11.1868 9.48704 8.4939C12.4703 5.801 16.0121 3.66488 19.9099 2.20749C23.8078 0.750107 27.9855 -3.32935e-07 32.2046 0L32.2046 29V58Z" fill="#524BD5"/>
<path d="M61.009 22C61.009 24.6264 60.4359 27.2272 59.3224 29.6537C58.209 32.0802 56.5769 34.285 54.5194 36.1421C52.462 37.9993 50.0194 39.4725 47.3312 40.4776C44.643 41.4827 41.7619 42 38.8522 42C35.9425 42 33.0613 41.4827 30.3731 40.4776C27.6849 39.4725 25.2424 37.9993 23.1849 36.1421C21.1275 34.285 19.4954 32.0802 18.3819 29.6537C17.2684 27.2272 16.6953 24.6264 16.6953 22L38.8522 22H61.009Z" fill="#F8A76F"/>
</svg>
