<svg width="92" height="78" viewBox="0 0 92 78" fill="none" xmlns="http://www.w3.org/2000/svg">
<path d="M76.2519 51.6716C74.3024 55.0971 71.5815 58.1614 68.2445 60.6893C64.9075 63.2173 61.0199 65.1596 56.8036 66.4051C52.5872 67.6507 48.1247 68.1752 43.6709 67.9487C39.2171 67.7222 34.8591 66.7492 30.8459 65.0851C26.8326 63.4211 23.2427 61.0986 20.2809 58.2503C17.3192 55.4021 15.0438 52.0837 13.5845 48.4848C12.1253 44.886 11.5108 41.077 11.7761 37.2754C12.0414 33.4738 13.1814 29.754 15.131 26.3285L45.6915 39L76.2519 51.6716Z" fill="#524BD5"/>
<path d="M69.0947 33.0095C69.2471 35.6327 68.7926 38.2558 67.7573 40.7291C66.722 43.2025 65.1262 45.4775 63.0608 47.4244C60.9954 49.3713 58.501 50.9518 55.72 52.0759C52.939 53.1999 49.9258 53.8454 46.8525 53.9755C43.7793 54.1056 40.7061 53.7177 37.8084 52.834C34.9108 51.9503 32.2454 50.5882 29.9645 48.8252C27.6836 47.0623 25.8318 44.9332 24.5149 42.5595C23.1981 40.1857 22.4418 37.6138 22.2894 34.9906L45.692 34L69.0947 33.0095Z" fill="#F8A76F"/>
</svg>
