<svg width="72" height="69" viewBox="0 0 72 69" fill="none" xmlns="http://www.w3.org/2000/svg">
<path d="M71.1913 40C71.1913 43.8083 70.3569 47.5794 68.7358 51.0978C67.1147 54.6163 64.7386 57.8132 61.7432 60.5061C58.7478 63.199 55.1918 65.3351 51.2781 66.7925C47.3644 68.2499 43.1697 69 38.9335 69C34.6974 69 30.5027 68.2499 26.589 66.7925C22.6753 65.3351 19.1193 63.199 16.1239 60.5061C13.1285 57.8132 10.7524 54.6163 9.13126 51.0978C7.51015 47.5794 6.67578 43.8083 6.67578 40L38.9335 40H71.1913Z" fill="#524BD5"/>
<path d="M22.2467 0C25.1682 0 28.0611 0.517315 30.7602 1.52241C33.4593 2.5275 35.9118 4.00069 37.9776 5.85786C40.0434 7.71504 41.682 9.91982 42.8 12.3463C43.918 14.7728 44.4935 17.3736 44.4935 20C44.4935 22.6264 43.918 25.2272 42.8 27.6537C41.682 30.0802 40.0434 32.285 37.9776 34.1421C35.9118 35.9993 33.4593 37.4725 30.7602 38.4776C28.0611 39.4827 25.1682 40 22.2467 40L22.2467 20L22.2467 0Z" fill="#F8A76F"/>
</svg>
