<svg width="71" height="69" viewBox="0 0 71 69" fill="none" xmlns="http://www.w3.org/2000/svg">
<path d="M38.351 11C42.524 11 46.6561 11.7501 50.5114 13.2075C54.3668 14.6649 57.8698 16.801 60.8206 19.4939C63.7713 22.1868 66.112 25.3837 67.7089 28.9022C69.3058 32.4206 70.1278 36.1917 70.1278 40C70.1278 43.8083 69.3058 47.5794 67.7089 51.0978C66.112 54.6163 63.7713 57.8132 60.8205 60.5061C57.8698 63.199 54.3668 65.3351 50.5114 66.7925C46.6561 68.2499 42.524 69 38.351 69L38.351 40V11Z" fill="#524BD5"/>
<path d="M21.915 0C24.7929 0 27.6427 0.517315 30.3015 1.52241C32.9604 2.5275 35.3763 4.00069 37.4113 5.85786C39.4463 7.71504 41.0605 9.91982 42.1618 12.3463C43.2632 14.7728 43.83 17.3736 43.83 20C43.83 22.6264 43.2632 25.2272 42.1618 27.6537C41.0605 30.0802 39.4463 32.285 37.4113 34.1421C35.3763 35.9993 32.9604 37.4725 30.3015 38.4776C27.6427 39.4827 24.7929 40 21.915 40L21.915 20L21.915 0Z" fill="#F8A76F"/>
</svg>
