<svg width="82" height="82" viewBox="0 0 82 82" fill="none" xmlns="http://www.w3.org/2000/svg">
<path d="M17.3484 24.3304C19.5989 21.2582 22.4325 18.6593 25.6874 16.6822C28.9423 14.7051 32.5548 13.3884 36.3185 12.8074C40.0823 12.2264 43.9236 12.3924 47.6232 13.2959C51.3228 14.1994 54.8082 15.8228 57.8804 18.0734C60.9527 20.3239 63.5515 23.1575 65.5286 26.4124C67.5058 29.6673 68.8224 33.2798 69.4034 37.0435C69.9845 40.8073 69.8185 44.6486 68.9149 48.3482C68.0114 52.0478 66.388 55.5332 64.1375 58.6054L40.7429 41.4679L17.3484 24.3304Z" fill="#524BD5"/>
<path d="M46 48C46 50.6264 45.4827 53.2272 44.4776 55.6537C43.4725 58.0802 41.9993 60.285 40.1421 62.1421C38.285 63.9993 36.0802 65.4725 33.6537 66.4776C31.2272 67.4827 28.6264 68 26 68C23.3736 68 20.7728 67.4827 18.3463 66.4776C15.9198 65.4725 13.715 63.9993 11.8579 62.1421C10.0007 60.285 8.5275 58.0802 7.52241 55.6537C6.51731 53.2272 6 50.6264 6 48L26 48H46Z" fill="#F8A76F"/>
</svg>
